<svg xmlns="http://www.w3.org/2000/svg" viewBox="0 0 899.23 440.07"><defs><style>.cls-1{fill:#808184;}.cls-2{fill:#58595b;}.cls-3{fill:#a6a8ab;}.cls-4{fill:#ac4606;}.cls-5{fill:#7b3204;}.cls-6{fill:#231f20;}.cls-7,.cls-9{fill:none;}.cls-8{fill:#696777;}.cls-9{stroke:#494752;stroke-miterlimit:10;}.cls-10{fill:#a8978f;}.cls-11{fill:#665c58;}.cls-12{fill:#d1c6c1;}</style></defs><title>castle1</title><g id="Towers"><path class="cls-1" d="M896.77,16.44C884.92,7.07,831.55,0,767.49,0S650.06,7.07,638.21,16.44h-2.47V437.71H899.23V16.44Z" transform="translate(0 0.18)"/><path class="cls-2" d="M261,16.44C249.17,7.07,195.8,0,131.74,0S14.32,7.07,2.46,16.44H0V437.71H263.49V16.44Z" transform="translate(0 0.18)"/><path class="cls-2" d="M794,437.56C762.42,373.12,783,.91,767.49-.16c0,0-2.13.05-5.52,0C725.2-.6,647.65,5.46,638.21,16.28h-2.47V437.56Z" transform="translate(0 0.18)"/><path class="cls-3" d="M873.61,437.71C842.09,373.28,863,5.19,847.47,4.12c0,0,2.65.23,6,.82,14.15,2.46,37.17,5.53,42.87,11.57l2.9-.07V437.71H873.61Z" transform="translate(0 0.18)"/><path class="cls-1" d="M221.69,176.17c-.4-91.75-6-171.87-13.25-172.36,0,0,1.46.24,5,.58,14.33,1.36,39.82,5.92,47.57,12.05h2.46v187.3S222.14,281.79,221.69,176.17Z" transform="translate(0 0.18)"/><path class="cls-3" d="M250.5,178.34C250.1,86.59,248.64,9.53,241.41,9c0,0-8.8-2.17,1,.24,8,2,15.1,4.41,18.59,7.17h2.46v187.3s4.39,20-6.15,26.07C247.09,235.68,250.73,230.44,250.5,178.34Z" transform="translate(0 0.18)"/></g><g id="Portico"><rect class="cls-1" x="221.01" y="142.04" width="457.21" height="295.6"/><polygon class="cls-4" points="734.22 218.78 165.01 218.78 221.01 140.35 678.22 140.35 734.22 218.78"/><path class="cls-2" d="M457,238c100.28-10.25,186.34-18.47,221.21-17V218.6H221v56l1.5-.17C231,266.63,332.49,250.77,457,238Z" transform="translate(0 0.18)"/><path class="cls-5" d="M718.29,216.54C445,216.54,177.1,210.82,218,147.36c1.31-2,1.14-4.83,3.36-7.19H221L165,218.6H734.22l-1.51-2.08Q725.52,216.55,718.29,216.54Z" transform="translate(0 0.18)"/></g><g id="Windows_et_al." data-name="Windows et al."><rect class="cls-6" x="126.68" y="61.45" width="10.14" height="102.64"/><rect class="cls-6" x="767.56" y="61.45" width="10.14" height="102.64"/><path class="cls-6" d="M512.84,327.3v45.38l-1.83,6-1.83-6V322.26a51,51,0,0,0-7.5-7.21v56.84l-1.83,6.79L498,371.89v-59.5a68.27,68.27,0,0,0-7.51-4.35v63.33l-1.83,7.31-1.83-7.31V306.32c-2.4-1.05-4.91-2-7.5-2.83V371.1l-1.83,7.58-1.83-7.58V302.39q-3.66-1-7.51-1.74V370.9l-1.83,7.78-1.83-7.78V300c-2.45-.36-5-.63-7.5-.82v71.57l-1.83,7.9-1.83-7.9V299c-1.24,0-2.49-.07-3.74-.07s-2.52,0-3.77.07v71.81L444,378.68l-1.83-7.86v-71.6c-2.54.18-5.05.45-7.5.82V370.9l-1.83,7.78L431,370.9V300.66q-3.86.72-7.51,1.74v68.68l-1.83,7.6-1.82-7.6V303.49c-2.6.85-5.11,1.79-7.51,2.84v65.09l-1.83,7.26-1.83-7.26V308.05a68.12,68.12,0,0,0-7.5,4.35v59.52l-1.83,6.76-1.83-6.76V315.06a50.62,50.62,0,0,0-7.51,7.22v50.4l-1.83,6-1.83-6V327.34a34.65,34.65,0,0,0-4,9.18V437.46H516.86V336.52A34.78,34.78,0,0,0,512.84,327.3Z" transform="translate(0 0.18)"/><path class="cls-7" d="M512.84,326.68c-.61-1-1.28-2-2-2.95H388.38c-.72,1-1.39,2-2,3a36.13,36.13,0,0,0-3,6.17H515.85A35.86,35.86,0,0,0,512.84,326.68Z" transform="translate(0 0.18)"/><path class="cls-7" d="M501.68,314.33c-1.17-.92-2.39-1.82-3.66-2.68l-1.13-.74H402.34c-.38.25-.77.49-1.14.75-1.28.86-2.49,1.76-3.66,2.69a51.77,51.77,0,0,0-6.14,5.72H507.83A52.8,52.8,0,0,0,501.68,314.33Z" transform="translate(0 0.18)"/><path class="cls-7" d="M486.85,305.53c-2.4-1-4.91-2-7.5-2.85q-1.8-.58-3.66-1.11c-2.44-.67-4.94-1.26-7.51-1.75-1.2-.23-2.42-.44-3.66-.62-2.45-.37-5-.64-7.5-.83-1.21-.09-2.43-.16-3.66-.2s-2.49-.08-3.74-.08-2.52,0-3.77.08-2.44.11-3.66.2c-2.54.19-5.05.46-7.5.83-1.23.19-2.45.39-3.66.62q-3.86.74-7.51,1.76c-1.23.34-2.45.71-3.65,1.1-2.6.85-5.11,1.81-7.51,2.86-1.23.54-2.43,1.12-3.61,1.71h81.73C489.3,306.65,488.09,306.08,486.85,305.53Z" transform="translate(0 0.18)"/><rect class="cls-7" x="382.37" y="336.72" width="134.49" height="101.17"/><path class="cls-8" d="M388.2,378.68l1.83-6v-50.4a41.53,41.53,0,0,0-3.66,5.06v45.34Z" transform="translate(0 0.18)"/><path class="cls-8" d="M399.37,378.68l1.83-6.76V312.4c-1.28.85-2.49,1.74-3.66,2.66v56.86Z" transform="translate(0 0.18)"/><path class="cls-8" d="M410.53,378.68l1.83-7.26V306.33c-1.25.54-2.47,1.12-3.66,1.72v63.37Z" transform="translate(0 0.18)"/><path class="cls-8" d="M421.69,378.68l1.83-7.6V302.4c-1.23.34-2.45.7-3.65,1.09v67.59Z" transform="translate(0 0.18)"/><path class="cls-8" d="M432.86,378.68l1.83-7.78V300c-1.23.18-2.45.39-3.66.62V370.9Z" transform="translate(0 0.18)"/><path class="cls-8" d="M444,378.68l1.83-7.86V299c-1.23.05-2.44.12-3.66.21v71.6Z" transform="translate(0 0.18)"/><path class="cls-8" d="M455.19,378.68l1.83-7.9V299.21c-1.21-.08-2.43-.15-3.66-.2v71.77Z" transform="translate(0 0.18)"/><path class="cls-8" d="M466.35,378.68l1.83-7.78V300.65c-1.2-.23-2.42-.43-3.66-.62V370.9Z" transform="translate(0 0.18)"/><path class="cls-8" d="M477.52,378.68l1.83-7.58V303.49c-1.2-.39-2.42-.76-3.66-1.1V371.1Z" transform="translate(0 0.18)"/><path class="cls-8" d="M488.68,378.68l1.83-7.31V308c-1.19-.6-2.41-1.17-3.66-1.72v65.05Z" transform="translate(0 0.18)"/><path class="cls-8" d="M499.85,378.68l1.83-6.79V315.05q-1.76-1.38-3.66-2.66v59.5Z" transform="translate(0 0.18)"/><path class="cls-8" d="M511,378.68l1.83-6V327.3a41.34,41.34,0,0,0-3.66-5v50.42Z" transform="translate(0 0.18)"/><rect class="cls-8" x="382.37" y="359.55" width="134.49" height="3.66"/><rect class="cls-8" x="382.37" y="346.73" width="134.49" height="3.66"/><path class="cls-8" d="M516.86,336.82a31.82,31.82,0,0,0-1-3.09H383.38c-.38,1-.73,2-1,3.09v.57H516.86Z" transform="translate(0 0.18)"/><path class="cls-8" d="M509.18,322.44c-.43-.51-.89-1-1.35-1.53H391.4c-.47.52-.93,1-1.37,1.56-.58.69-1.12,1.39-1.65,2.1H510.85C510.32,323.85,509.76,323.14,509.18,322.44Z" transform="translate(0 0.18)"/><path class="cls-8" d="M490.51,308.11H408.75l-.05,0a69.74,69.74,0,0,0-6.36,3.64h94.55A70.17,70.17,0,0,0,490.51,308.11Z" transform="translate(0 0.18)"/><polyline class="cls-9" points="442.19 299.29 442.19 370.9 444.02 378.76"/><polyline class="cls-9" points="431.03 300.83 431.03 370.9 432.86 378.76"/><polyline class="cls-9" points="419.87 303.67 419.87 370.9 421.69 378.76"/><polyline class="cls-9" points="408.7 308.23 408.7 370.9 410.53 378.76"/><polyline class="cls-9" points="397.54 315.24 397.54 372.31 399.37 378.76"/><polyline class="cls-9" points="386.37 327.52 386.37 373.41 388.2 379.27"/><polyline class="cls-9" points="453.36 299.29 453.36 370.9 455.19 378.76"/><polyline class="cls-9" points="464.52 300.21 464.52 370.9 466.35 378.76"/><polyline class="cls-9" points="475.69 302.57 475.69 371.27 477.52 378.86"/><polyline class="cls-9" points="486.85 306.5 486.85 371.41 488.68 379.27"/><polyline class="cls-9" points="498.02 312.56 498.02 372.06 499.85 378.76"/><polyline class="cls-9" points="509.18 322.44 509.18 372.86 511.01 378.86"/><rect class="cls-10" x="259.23" y="316.16" width="25" height="13"/><rect class="cls-10" x="273.86" y="298.84" width="25" height="13"/><rect class="cls-10" x="289.86" y="316.16" width="25" height="13"/><rect class="cls-10" x="569.27" y="379.27" width="25" height="13"/><rect class="cls-10" x="600.41" y="379.27" width="25" height="13"/><rect class="cls-10" x="584.77" y="361.38" width="25" height="13"/><rect class="cls-10" x="612.91" y="397.26" width="25" height="13"/><rect class="cls-10" x="600.41" y="238.9" width="25" height="13"/><rect class="cls-10" x="612.91" y="255.73" width="25" height="13"/><rect class="cls-11" x="40.24" y="227.41" width="25" height="13"/><rect class="cls-11" x="52.74" y="206.9" width="25" height="13"/><rect class="cls-11" x="65.24" y="187.48" width="25" height="13"/><rect class="cls-11" x="72.74" y="227.41" width="25" height="13"/><rect class="cls-11" x="146.46" y="374.38" width="25" height="13"/><rect class="cls-11" x="134.46" y="391.38" width="25" height="13"/><rect class="cls-11" x="133.5" y="358.09" width="25" height="13"/><rect class="cls-11" x="679.22" y="75.24" width="25" height="13"/><rect class="cls-11" x="693.72" y="92.82" width="25" height="13"/><rect class="cls-11" x="708.99" y="75.24" width="25" height="13"/><rect class="cls-11" x="747.99" y="312.09" width="25" height="13"/><rect class="cls-11" x="760.49" y="330.07" width="25" height="13"/><rect class="cls-10" x="760.49" y="330.07" width="25" height="13"/><path class="cls-7" d="M778.75,342.89h6.74v-13H778Q778.35,336.51,778.75,342.89Z" transform="translate(0 0.18)"/><path class="cls-11" d="M760.49,329.89v13h18.26q-.4-6.39-.76-13Z" transform="translate(0 0.18)"/><rect class="cls-10" x="772.99" y="348.05" width="25" height="13"/><path class="cls-7" d="M794.87,439.44l.18.37Z" transform="translate(0 0.18)"/><path class="cls-7" d="M794.12,437.91l.08.17Z" transform="translate(0 0.18)"/><path class="cls-7" d="M795.08,439.87Z" transform="translate(0 0.18)"/><path class="cls-7" d="M794,437.74l.08.17Z" transform="translate(0 0.18)"/><path class="cls-7" d="M795.05,439.81l0,.06Z" transform="translate(0 0.18)"/><path class="cls-7" d="M794.2,438.08l.67,1.36C794.73,439.15,794.51,438.72,794.2,438.08Z" transform="translate(0 0.18)"/><path class="cls-7" d="M794,437.64l0,.1Z" transform="translate(0 0.18)"/><path class="cls-7" d="M794,437.64l0-.08Z" transform="translate(0 0.18)"/><path class="cls-7" d="M773,360.87v-13h6.08c-8.86-131.48.24-347.21-11.58-348,0,0-2.13.05-5.52,0C725.2-.6,647.65,5.46,638.21,16.28h-2.47V437.56H794C787.22,423.81,782.87,396,780,360.87Z" transform="translate(0 0.18)"/><path class="cls-11" d="M773,360.87h7q-.51-6.35-1-13H773Z" transform="translate(0 0.18)"/><rect class="cls-10" x="847.47" y="194.98" width="25" height="13"/><rect class="cls-10" x="834.97" y="177.82" width="25" height="13"/><rect class="cls-10" x="834.97" y="212.14" width="25" height="13"/><path class="cls-7" d="M896.33,16.51c-5.7-6-28.72-9.11-42.87-11.57-3.34-.59-6-.82-6-.82,7.26.5,6.56,81.16,7,173.52H860v13H854.5l0,4.16h17.94v13H854.62c0,1.38,0,2.77,0,4.16H860v13h-5.19c1,91.66,4.52,183.5,18.83,212.75h25.62V16.44Z" transform="translate(0 0.18)"/><path class="cls-12" d="M872.47,194.8H854.53q0,6.48.09,13h17.85Z" transform="translate(0 0.18)"/><path class="cls-12" d="M860,177.64h-5.53q0,6.47.06,13H860Z" transform="translate(0 0.18)"/><path class="cls-12" d="M860,212h-5.31c0,4.33.08,8.66.12,13H860Z" transform="translate(0 0.18)"/><rect class="cls-10" x="216.68" y="119.22" width="25" height="13"/><rect class="cls-12" x="229.18" y="101.24" width="25" height="13"/><path class="cls-11" d="M220.73,119h-4v13h4.4Q220.92,125.46,220.73,119Z" transform="translate(0 0.18)"/><path class="cls-10" d="M249.72,101.06H229.18v13h20.76Q249.84,107.43,249.72,101.06Z" transform="translate(0 0.18)"/><rect class="cls-11" x="299.56" y="225.19" width="25" height="13"/><rect class="cls-11" x="310.27" y="244.53" width="25" height="13"/><path class="cls-10" d="M310.27,256v1.38h25v-4.94Q322.18,254.21,310.27,256Z" transform="translate(0 0.18)"/></g></svg>