<svg xmlns="http://www.w3.org/2000/svg" viewBox="0 0 900.73 435.64"><defs><style>.cls-1{fill:#808184;}.cls-2{fill:#a6a8ab;}.cls-3{fill:#58595b;}.cls-10,.cls-4{fill:none;}.cls-4{stroke:#a6a8ab;stroke-linecap:round;stroke-linejoin:round;stroke-width:3px;}.cls-5{fill:#ac4606;}.cls-6{fill:#7b3204;}.cls-7{fill:#231f20;}.cls-8{fill:#a8978f;}.cls-9{fill:#665c58;}.cls-11{fill:#d1c6c1;}</style></defs><title>castle3</title><g id="Towers"><polygon class="cls-1" points="893.49 112.02 887.36 112.02 880.72 124.78 872.04 126.83 867.45 137.72 855.82 139.59 854.61 151.34 842.94 151.34 825.57 162.57 815.87 165.63 807.19 186.57 795.45 194.74 795.45 199.85 782.17 208.02 779.62 216.19 766.85 220.77 762.77 227.42 750.51 227.42 746.94 235.08 730.09 235.08 726.56 245.8 713.75 245.8 694.34 245.8 679.02 260.1 663.7 252.94 637.25 267.25 637.25 433.34 900.73 433.34 900.73 100.78 898.6 103 893.49 112.02"/><path class="cls-2" d="M892,115.81h-6.13l-6.64,12.76-8.68,2.05L866,141.51l-11.63,1.88c.35,111.67.69,255.37,19.29,293.38h25.62V104.57l-2.13,2.22Z" transform="translate(1.5 -4.12)"/><polygon class="cls-3" points="233.32 309.2 228.85 316.14 213.87 302.86 201.3 302.52 201.3 295.03 190.62 262.35 188.91 257.24 183.81 254.86 171.89 246.01 168.83 239.2 165.77 237.84 148.47 231.99 138.3 214.9 134.89 213.54 133.91 206.03 133.87 205.71 129.79 198.22 114.98 194.82 110.21 177.8 103.4 178.14 89.06 166.97 88.94 151.44 88.6 143.95 81.79 142.24 74.08 134.29 70.68 134.29 63.53 115.9 59.45 115.9 47.32 75.39 43.23 70.63 35.87 55.73 26.09 55.65 25.06 45.78 14.23 43.67 14.85 28.41 10.43 24.67 1.5 18.06 1.5 433.65 264.99 433.65 264.99 332.82 239.87 314.03 233.32 309.2"/><path class="cls-3" d="M263.49,336.94" transform="translate(1.5 -4.12)"/><path class="cls-1" d="M238.37,319.15l-6.55-4.83-4.47,6.94-15-13.28-12.57-.34v-7.49l-10.68-32.68-1.71-5.11-5.1-2.38-11.92-8.85-3.06-6.81L164.27,243,147,237.11,136.8,220l-3.41-1.36-1-7.51,0-.32-4.08-7.49-14.81-3.4-4.77-17-6.81.35L87.56,172.09l-.12-15.54-.34-7.49-6.81-1.7-7.7-8H69.18L62,121H58L45.82,80.51l-4.09-4.77L34.37,60.85l-9.78-.08-1-9.88-10.83-2.1.62-15.26L8.93,29.79,0,23.18v20l6.35,5.37L5.73,63.79l10.83,2.1,1,9.88,9.78.08,7.36,14.89,4.09,4.77L51,136H55l7.15,18.38h3.41l7.7,8,6.81,1.7.34,7.49.12,15.54L94.9,198.26l6.81-.35,4.77,17,14.81,3.4,4.08,7.49,0,.32,1,7.51L129.8,235,140,252.11l17.3,5.85,3.06,1.36,3.06,6.81L175.31,275s13.82,162.48,41.34,162.48c3.48,0-3.28.65,0,0h46.84V337.94Z" transform="translate(1.5 -4.12)"/><polyline class="cls-4" points="264.99 333.51 239.87 314.72 233.32 309.89 228.85 316.83 213.87 303.55 201.3 303.21 201.3 295.72 190.62 263.04 188.91 257.94 183.81 255.55 171.89 246.7 168.83 239.89 165.77 238.53 148.47 232.68 138.3 215.6 134.89 214.23 133.91 206.73 133.87 206.4 129.79 198.91 114.98 195.51 110.21 178.49 103.4 178.83 89.06 167.66 88.94 152.13 88.6 144.64 81.79 142.94 74.08 134.98 70.68 134.98 63.53 116.6 59.45 116.6 47.32 76.08 43.23 71.32 35.87 56.43 26.09 56.34 25.06 46.47 14.23 44.36 14.85 29.11 10.43 25.36 1.5 18.75"/><path class="cls-2" d="M238.37,319.17l-6.55-4.83-4.47,6.94-15-13.28-12.57-.34s3.33,129.82,30.85,129.82c3.48,0-3.28.66,0,0h32.84V338Z" transform="translate(1.5 -4.12)"/><path class="cls-3" d="M793.55,437.78l.08.18Z" transform="translate(1.5 -4.12)"/><path class="cls-3" d="M793.47,437.62l.08.16Z" transform="translate(1.5 -4.12)"/><path class="cls-3" d="M793.42,437.52l0-.09Z" transform="translate(1.5 -4.12)"/><path class="cls-3" d="M765.35,224.57l-4.08,6.64H749l-3.57,7.66H728.59l-3.53,10.73H692.84l-15.32,14.29-15.32-7.16L635.74,271l-.57,166.39H793.38c-14.4-29.42-28-121.34-19-216.11Z" transform="translate(1.5 -4.12)"/><path class="cls-3" d="M793.42,437.52l.05.1Z" transform="translate(1.5 -4.12)"/><path class="cls-3" d="M794.48,439.68l0,.06Z" transform="translate(1.5 -4.12)"/><path class="cls-3" d="M793.63,438l.67,1.35Z" transform="translate(1.5 -4.12)"/><path class="cls-3" d="M794.51,439.74Z" transform="translate(1.5 -4.12)"/><path class="cls-3" d="M794.3,439.31l.18.37Z" transform="translate(1.5 -4.12)"/></g><g id="Portico"><polygon class="cls-1" points="679.72 433.34 222.51 433.34 221.8 360.63 679.72 151.63 679.72 433.34"/><polygon class="cls-5" points="698.9 150.91 239.56 433.34 215.1 433.34 220.64 352.91 610.12 113.43 698.9 150.91"/><path class="cls-3" d="M471.44,316.79C533.76,269.1,636,197.64,678.22,168.31v-1.48L238.06,437.46H343.38C377.19,399.64,422.53,354.21,471.44,316.79Z" transform="translate(1.5 -4.12)"/><path class="cls-6" d="M682.75,161.63C450,304.76,230.2,403.57,220.3,364.75c-1-4-1.55-4.72-.9-7.89l-.26.16-5.54,80.44h24.46L697.41,155l-2.38-1Z" transform="translate(1.5 -4.12)"/></g><g id="Windows"><path class="cls-7" d="M516.19,334.35c-3.84-15.31-24-31.16-54-34.68-2.85-.33-79.79,49.06-79.79,49.06v88.73H516.86V336.52C516.67,335.79,516.44,335.07,516.19,334.35Z" transform="translate(1.5 -4.12)"/><rect class="cls-8" x="570.77" y="374.98" width="25" height="13"/><rect class="cls-8" x="601.91" y="374.98" width="25" height="13"/><rect class="cls-8" x="586.27" y="357.08" width="25" height="13"/><rect class="cls-8" x="614.41" y="392.97" width="25" height="13"/><rect class="cls-8" x="601.91" y="234.61" width="25" height="13"/><rect class="cls-8" x="614.41" y="251.44" width="25" height="13"/><rect class="cls-9" x="41.74" y="223.12" width="25" height="13"/><rect class="cls-9" x="54.24" y="202.61" width="25" height="13"/><rect class="cls-9" x="74.24" y="223.12" width="25" height="13"/><rect class="cls-9" x="147.96" y="370.08" width="25" height="13"/><rect class="cls-9" x="135.96" y="387.08" width="25" height="13"/><rect class="cls-9" x="135" y="353.8" width="25" height="13"/><rect class="cls-9" x="749.49" y="307.79" width="25" height="13"/><rect class="cls-9" x="760.99" y="325.77" width="25" height="13"/><rect class="cls-9" x="774.49" y="343.75" width="25" height="13"/><rect class="cls-8" x="848.97" y="190.68" width="25" height="13"/><rect class="cls-8" x="836.47" y="173.52" width="25" height="13"/><rect class="cls-8" x="836.47" y="207.84" width="25" height="13"/><path class="cls-10" d="M896.33,16.51c-5.7-6-28.72-9.11-42.87-11.57-3.34-.59-6-.82-6-.82,7.26.5,6.56,81.16,7,173.52H860v13H854.5l0,4.16h17.94v13H854.62c0,1.38,0,2.77,0,4.16H860v13h-5.19c1,91.66,4.52,183.5,18.83,212.75h25.62V16.44Z" transform="translate(1.5 -4.12)"/><path class="cls-11" d="M872.47,194.8H854.53q0,6.48.09,13h17.85Z" transform="translate(1.5 -4.12)"/><path class="cls-11" d="M860,177.64h-5.53q0,6.47.06,13H860Z" transform="translate(1.5 -4.12)"/><path class="cls-11" d="M860,212h-5.31c0,4.33.08,8.66.12,13H860Z" transform="translate(1.5 -4.12)"/><path d="M382.37,348.73h0V396c26.69-26.93,57.12-54.8,89.07-79.24,4.66-3.57,9.55-7.27,14.62-11.08a91.09,91.09,0,0,0-23.9-6Z" transform="translate(1.5 -4.12)"/><path class="cls-8" d="M773,324.91v-13h-.93c.17,4.4.4,8.73.65,13Z" transform="translate(1.5 -4.12)"/><path class="cls-8" d="M774,342.89h10.46v-13H773Q773.48,336.51,774,342.89Z" transform="translate(1.5 -4.12)"/><path class="cls-8" d="M774.49,347.87q.64,6.64,1.39,13H798v-13Z" transform="translate(1.5 -4.12)"/></g></svg>