<svg xmlns="http://www.w3.org/2000/svg" viewBox="0 0 900.1 442.49"><defs><style>.cls-1{fill:#58595b;}.cls-2{fill:#808184;}.cls-3{fill:#a6a8ab;}.cls-10,.cls-12,.cls-4,.cls-5,.cls-6{fill:none;}.cls-4{stroke:#a6a8ab;}.cls-4,.cls-6{stroke-linecap:round;stroke-linejoin:round;}.cls-4,.cls-5,.cls-6{stroke-width:3px;}.cls-5{stroke:#808184;}.cls-12,.cls-5{stroke-miterlimit:10;}.cls-6{stroke:#58595b;}.cls-7{fill:#ac4606;}.cls-8{fill:#7b3204;}.cls-9{fill:#231f20;}.cls-11{fill:#696777;}.cls-12{stroke:#494752;}.cls-13{fill:#665c58;}.cls-14{fill:#a8978f;}.cls-15{fill:#d1c6c1;}</style></defs><title>castle2</title><g id="Towers"><path class="cls-1" d="M241.68,200.3,236,193.8h-6.78l-12.5-10.48L200.59,167,194,163.91l-8.17-3.57-4.6-18.48-9.72-12.16-2.53-15.64L158.5,98.55,140.33,85.79l-13.65-5.62L114.8,61.28l-8.68-4.09-4.6-16.85H90.24l-12.5-1.53h-5l-7.5-4.6H50.46l-6.13-9.7H29l-2.55-7.66-9.7,3.06-5.11-1.53L9.56,13.8a27.75,27.75,0,0,0-7.1,3.7H0V438.77H263.49V213.22l-9.31-6.5Z" transform="translate(0.87 -4.12)"/><path class="cls-2" d="M896.77,17.5a27.58,27.58,0,0,0-7.1-3.7h0L873.35,25l-7.91,14.3-18,7.15L831.73,64.85H814.37V73l-19.28,5.11h-43L741.86,91.4l-16.34,7.15-10.1-7.15L704.07,120H679.56l-4.08,5.11H660.16L654,136.34l-18.29,6.13v296.3H899.23V17.5Z" transform="translate(0.87 -4.12)"/><path class="cls-1" d="M794,438.7l0,.1Z" transform="translate(0.87 -4.12)"/><path class="cls-1" d="M794,438.8l.08.17Z" transform="translate(0.87 -4.12)"/><path class="cls-1" d="M794,438.7l0-.08Z" transform="translate(0.87 -4.12)"/><path class="cls-1" d="M767.49,78.13H752.07L741.86,91.4l-16.34,7.15-10.1-7.15L704.07,120H679.56l-4.08,5.11H660.16L654,136.34l-18.29,6.13V438.62H794C772.11,394,764.33,120.77,790.12,78.81Z" transform="translate(0.87 -4.12)"/><path class="cls-1" d="M794.12,439l.08.17Z" transform="translate(0.87 -4.12)"/><path class="cls-1" d="M795.05,440.87l0,.06Z" transform="translate(0.87 -4.12)"/><path class="cls-1" d="M795.08,440.93Z" transform="translate(0.87 -4.12)"/><path class="cls-1" d="M794.87,440.5l.18.37Z" transform="translate(0.87 -4.12)"/><path class="cls-1" d="M794.2,439.14l.67,1.36C794.73,440.21,794.51,439.78,794.2,439.14Z" transform="translate(0.87 -4.12)"/><path class="cls-3" d="M896.33,17.57c-1.4-1.48-3.83-2.78-6.92-3.93l.26.16L873.35,25l-7.91,14.3-12.33,4.9c3.64,96.64-4.74,343,20.5,394.55h25.62V17.5Z" transform="translate(0.87 -4.12)"/><path class="cls-2" d="M264.75,303.18l-1.26-88-9.31-6.5-12.5-6.43-5.72-6.5h-6.78l-12.5-10.47L200.59,168.9,194,165.83l-8.17-3.57-4.6-18.48-9.72-12.16L168.93,116,158.5,100.47,140.33,87.7l-13.65-5.61L114.8,63.19l-8.68-4.08-4.6-16.85H90.24l-12.5-1.53h-5l-7.5-4.6H50.46l-6.13-9.7H29l-2.55-7.66-9.7,3.06L11.65,20.3,9.56,15.72a27.77,27.77,0,0,0-7.1,3.69H0v3.77L4.56,20.8l1.6,4.47,5.1,1.53L21,23.73l2.55,7.66H38.84L45,41.1H59.75l7.5,4.59h5l12.5,1.53H96l4.6,16.86,8.68,4.08,11.87,18.89,13.66,5.62L153,105.44,163.43,121,166,136.59l9.72,12.16,4.6,18.47,8.17,3.58,6.63,21.2,16.1,16.44,12.5,14.48,6.78,6,5.72,11.5" transform="translate(0.87 -4.12)"/><path class="cls-4" d="M262.37,213.45l-20.06-13.24-5.72-6.5h-6.78l-12.5-10.47-16.1-16.34-6.63-3.07-8.17-3.57-4.6-18.48-9.72-12.16L169.55,114,159.13,98.47,141,85.7,127.3,80.09l-11.87-18.9-8.68-4.08-4.6-16.85H90.87l-12.5-1.53h-5l-7.5-4.6H51.09L45,24.43H29.64l-2.55-7.66-9.71,3.06-5.1-1.53-2.09-4.58a27.77,27.77,0,0,0-7.1,3.69H.63" transform="translate(0.87 -4.12)"/><polyline class="cls-3" points="237.77 234.3 247.03 222.17 236.36 214.61 221.88 198.86 194.67 161.03 202.16 162.78 218.26 179.12 230.76 189.6 237.54 189.6 243.26 196.1 255.76 202.52 265.07 209.02 266.33 297.07"/><path class="cls-5" d="M899.23,18.18h-2.46a19.29,19.29,0,0,0-3.35-2.06c-1.15-.63-3.75-1.63-3.75-1.63L873.35,25.71,865.44,40l-18,7.15L831.73,65.54H814.37v8.17" transform="translate(0.87 -4.12)"/><path class="cls-5" d="M553,446l-.19-.37Z" transform="translate(0.87 -4.12)"/><path class="cls-5" d="M552.82,445.58l-.18-.38Z" transform="translate(0.87 -4.12)"/><path class="cls-5" d="M552.41,444.73c-.09-.18-.17-.35-.25-.5Z" transform="translate(0.87 -4.12)"/><path class="cls-5" d="M552.64,445.2l-.23-.47Z" transform="translate(0.87 -4.12)"/><polyline class="cls-6" points="815.24 69.59 795.96 74.69 774.9 74.69 768.36 74.69 752.95 74.69 742.73 87.97 726.39 95.12 716.29 87.97 704.95 116.57 680.43 116.57 676.35 121.67 661.03 121.67 654.9 132.91 636.62 139.03"/><path class="cls-3" d="M553,446l-.19-.37Z" transform="translate(0.87 -4.12)"/><path class="cls-3" d="M552.82,445.58l-.18-.38Z" transform="translate(0.87 -4.12)"/><path class="cls-3" d="M552.41,444.73c-.09-.18-.17-.35-.25-.5Z" transform="translate(0.87 -4.12)"/><path class="cls-3" d="M552.64,445.2l-.23-.47Z" transform="translate(0.87 -4.12)"/></g><g id="Portico"><polygon class="cls-2" points="679.1 433.34 221.88 433.34 221.88 236.17 679.1 151.63 679.1 433.34"/><polygon class="cls-7" points="737.7 209.67 177.99 313.29 218.78 225.97 668.36 142.75 737.7 209.67"/><path class="cls-1" d="M467.78,283.37c96.74-28.33,179.86-52.09,214.42-57l-.44-2.4L221,309.28V399.6l1.45-.44C229.38,389.9,347.66,318.55,467.78,283.37Z" transform="translate(0.87 -4.12)"/><path class="cls-8" d="M720.78,214.67c-268.71,49.74-533.19,92.88-504.56,23.05.92-2.25.24-5,2-7.68l-.3.05-40.79,87.32L736.83,213.79,735,212Z" transform="translate(0.87 -4.12)"/></g><g id="Windows"><path class="cls-9" d="M512.84,327.3v45.38l-1.83,6-1.83-6V322.26a51,51,0,0,0-7.5-7.21v56.84l-1.83,6.79L498,371.89v-59.5a68.27,68.27,0,0,0-7.51-4.35v63.33l-1.83,7.31-1.83-7.31V306.32c-2.4-1.05-4.91-2-7.5-2.83V371.1l-1.83,7.58-1.83-7.58V302.39q-3.66-1-7.51-1.74V370.9l-1.83,7.78-1.83-7.78V300c-2.45-.36-5-.63-7.5-.82v71.57l-1.83,7.9-1.83-7.9V299c-1.24,0-2.49-.07-3.74-.07s-2.52,0-3.77.07v71.81L444,378.68l-1.83-7.86v-71.6c-2.54.18-5.05.45-7.5.82V370.9l-1.83,7.78L431,370.9V300.66q-3.86.72-7.51,1.74v68.68l-1.83,7.6-1.82-7.6V303.49c-2.6.85-5.11,1.79-7.51,2.84v65.09l-1.83,7.26-1.83-7.26V308.05a68.12,68.12,0,0,0-7.5,4.35v59.52l-1.83,6.76-1.83-6.76V315.06a50.62,50.62,0,0,0-7.51,7.22v50.4l-1.83,6-1.83-6V327.34a34.65,34.65,0,0,0-4,9.18V437.46H516.86V336.52A34.78,34.78,0,0,0,512.84,327.3Z" transform="translate(0.87 -4.12)"/><path class="cls-10" d="M512.84,326.68c-.61-1-1.28-2-2-2.95H388.38c-.72,1-1.39,2-2,3a36.13,36.13,0,0,0-3,6.17H515.85A35.86,35.86,0,0,0,512.84,326.68Z" transform="translate(0.87 -4.12)"/><path class="cls-10" d="M501.68,314.33c-1.17-.92-2.39-1.82-3.66-2.68l-1.13-.74H402.34c-.38.25-.77.49-1.14.75-1.28.86-2.49,1.76-3.66,2.69a51.77,51.77,0,0,0-6.14,5.72H507.83A52.8,52.8,0,0,0,501.68,314.33Z" transform="translate(0.87 -4.12)"/><path class="cls-10" d="M486.85,305.53c-2.4-1-4.91-2-7.5-2.85q-1.8-.58-3.66-1.11c-2.44-.67-4.94-1.26-7.51-1.75-1.2-.23-2.42-.44-3.66-.62-2.45-.37-5-.64-7.5-.83-1.21-.09-2.43-.16-3.66-.2s-2.49-.08-3.74-.08-2.52,0-3.77.08-2.44.11-3.66.2c-2.54.19-5.05.46-7.5.83-1.23.19-2.45.39-3.66.62q-3.86.74-7.51,1.76c-1.23.34-2.45.71-3.65,1.1-2.6.85-5.11,1.81-7.51,2.86-1.23.54-2.43,1.12-3.61,1.71h81.73C489.3,306.65,488.09,306.08,486.85,305.53Z" transform="translate(0.87 -4.12)"/><rect class="cls-10" x="383.24" y="332.43" width="134.49" height="101.17"/><path class="cls-11" d="M388.2,378.68l1.83-6v-50.4a41.53,41.53,0,0,0-3.66,5.06v45.34Z" transform="translate(0.87 -4.12)"/><path class="cls-11" d="M399.37,378.68l1.83-6.76V312.4c-1.28.85-2.49,1.74-3.66,2.66v56.86Z" transform="translate(0.87 -4.12)"/><path class="cls-11" d="M410.53,378.68l1.83-7.26V306.33c-1.25.54-2.47,1.12-3.66,1.72v63.37Z" transform="translate(0.87 -4.12)"/><path class="cls-11" d="M421.69,378.68l1.83-7.6V302.4c-1.23.34-2.45.7-3.65,1.09v67.59Z" transform="translate(0.87 -4.12)"/><path class="cls-11" d="M432.86,378.68l1.83-7.78V300c-1.23.18-2.45.39-3.66.62V370.9Z" transform="translate(0.87 -4.12)"/><path class="cls-11" d="M444,378.68l1.83-7.86V299c-1.23.05-2.44.12-3.66.21v71.6Z" transform="translate(0.87 -4.12)"/><path class="cls-11" d="M455.19,378.68l1.83-7.9V299.21c-1.21-.08-2.43-.15-3.66-.2v71.77Z" transform="translate(0.87 -4.12)"/><path class="cls-11" d="M466.35,378.68l1.83-7.78V300.65c-1.2-.23-2.42-.43-3.66-.62V370.9Z" transform="translate(0.87 -4.12)"/><path class="cls-11" d="M477.52,378.68l1.83-7.58V303.49c-1.2-.39-2.42-.76-3.66-1.1V371.1Z" transform="translate(0.87 -4.12)"/><path class="cls-11" d="M488.68,378.68l1.83-7.31V308c-1.19-.6-2.41-1.17-3.66-1.72v65.05Z" transform="translate(0.87 -4.12)"/><path class="cls-11" d="M499.85,378.68l1.83-6.79V315.05q-1.76-1.38-3.66-2.66v59.5Z" transform="translate(0.87 -4.12)"/><path class="cls-11" d="M511,378.68l1.83-6V327.3a41.34,41.34,0,0,0-3.66-5v50.42Z" transform="translate(0.87 -4.12)"/><rect class="cls-11" x="383.24" y="355.25" width="134.49" height="3.66"/><rect class="cls-11" x="383.24" y="342.43" width="134.49" height="3.66"/><path class="cls-11" d="M516.86,336.82a31.82,31.82,0,0,0-1-3.09H383.38c-.38,1-.73,2-1,3.09v.57H516.86Z" transform="translate(0.87 -4.12)"/><path class="cls-11" d="M509.18,322.44c-.43-.51-.89-1-1.35-1.53H391.4c-.47.52-.93,1-1.37,1.56-.58.69-1.12,1.39-1.65,2.1H510.85C510.32,323.85,509.76,323.14,509.18,322.44Z" transform="translate(0.87 -4.12)"/><path class="cls-11" d="M490.51,308.11H408.75l-.05,0a69.74,69.74,0,0,0-6.36,3.64h94.55A70.17,70.17,0,0,0,490.51,308.11Z" transform="translate(0.87 -4.12)"/><polyline class="cls-12" points="443.06 295 443.06 366.6 444.89 374.46"/><polyline class="cls-12" points="431.9 296.54 431.9 366.6 433.73 374.46"/><polyline class="cls-12" points="420.74 299.38 420.74 366.6 422.57 374.46"/><polyline class="cls-12" points="409.57 303.93 409.57 366.6 411.4 374.46"/><polyline class="cls-12" points="398.41 310.95 398.41 368.01 400.24 374.46"/><polyline class="cls-12" points="387.24 323.22 387.24 369.11 389.07 374.98"/><polyline class="cls-12" points="454.23 295 454.23 366.6 456.06 374.46"/><polyline class="cls-12" points="465.39 295.92 465.39 366.6 467.22 374.46"/><polyline class="cls-12" points="476.56 298.27 476.56 366.98 478.39 374.56"/><polyline class="cls-12" points="487.72 302.2 487.72 367.11 489.55 374.97"/><polyline class="cls-12" points="498.89 308.27 498.89 367.77 500.72 374.46"/><polyline class="cls-12" points="510.05 318.14 510.05 368.56 511.88 374.56"/><rect class="cls-13" x="260.1" y="311.86" width="25" height="13"/><polygon class="cls-13" points="299.73 307.54 274.73 307.54 274.73 295.38 279.25 294.54 299.73 294.54 299.73 307.54"/><rect class="cls-13" x="290.73" y="311.86" width="25" height="13"/><rect class="cls-14" x="570.14" y="374.98" width="25" height="13"/><rect class="cls-14" x="601.29" y="374.98" width="25" height="13"/><rect class="cls-14" x="585.64" y="357.08" width="25" height="13"/><rect class="cls-14" x="613.79" y="392.97" width="25" height="13"/><polygon class="cls-13" points="626.29 247.6 601.29 247.6 601.29 234.93 603.01 234.6 626.29 234.6 626.29 247.6"/><rect class="cls-14" x="613.79" y="251.44" width="25" height="13"/><rect class="cls-13" x="41.12" y="223.12" width="25" height="13"/><rect class="cls-13" x="53.62" y="202.61" width="25" height="13"/><rect class="cls-13" x="66.12" y="183.18" width="25" height="13"/><rect class="cls-13" x="73.62" y="223.12" width="25" height="13"/><rect class="cls-13" x="147.33" y="370.08" width="25" height="13"/><rect class="cls-13" x="135.33" y="387.08" width="25" height="13"/><rect class="cls-13" x="134.37" y="353.8" width="25" height="13"/><rect class="cls-13" x="748.86" y="307.79" width="25" height="13"/><rect class="cls-13" x="760.36" y="325.77" width="25" height="13"/><rect class="cls-13" x="773.86" y="343.75" width="25" height="13"/><rect class="cls-14" x="848.34" y="190.68" width="25" height="13"/><rect class="cls-14" x="835.84" y="173.52" width="25" height="13"/><rect class="cls-14" x="835.84" y="207.84" width="25" height="13"/><path class="cls-10" d="M896.33,16.51c-5.7-6-28.72-9.11-42.87-11.57-3.34-.59-6-.82-6-.82,7.26.5,6.56,81.16,7,173.52H860v13H854.5l0,4.16h17.94v13H854.62c0,1.38,0,2.77,0,4.16H860v13h-5.19c1,91.66,4.52,183.5,18.83,212.75h25.62V16.44Z" transform="translate(0.87 -4.12)"/><path class="cls-15" d="M872.47,194.8H854.53q0,6.48.09,13h17.85Z" transform="translate(0.87 -4.12)"/><path class="cls-15" d="M860,177.64h-5.53q0,6.47.06,13H860Z" transform="translate(0.87 -4.12)"/><path class="cls-15" d="M860,212h-5.31c0,4.33.08,8.66.12,13H860Z" transform="translate(0.87 -4.12)"/><path class="cls-14" d="M600.41,245.52v6.2h25V238.91C617.57,240.92,609.21,243.14,600.41,245.52Z" transform="translate(0.87 -4.12)"/><path class="cls-14" d="M778.51,347.87q.54,6.63,1.14,13H798v-13Z" transform="translate(0.87 -4.12)"/><path class="cls-14" d="M784.49,329.89h-7.31q.44,6.6.93,13h6.38Z" transform="translate(0.87 -4.12)"/></g></svg>