<svg xmlns="http://www.w3.org/2000/svg" viewBox="0 0 625.08 930.74"><defs><style>.cls-1{fill:#e3bfb6;}.cls-2{fill:#c49191;}.cls-3{fill:#be1e2d;}.cls-4{fill:#7c131b;}.cls-5{fill:#620a15;}.cls-6{fill:#94713f;}.cls-7{fill:#e0c47d;}.cls-8{fill:#7f1416;}.cls-9{fill:#4d1416;}.cls-10{fill:#4b1718;}.cls-11{fill:#684821;}.cls-12{fill:#231f20;}.cls-13{fill:#43130e;}.cls-14{fill:#2c110f;}</style></defs><title>damsel1</title><g id="Skin"><path class="cls-1" d="M286.36,82.65v20.94s-3.83,22.46-13.53,26.29-33.45,10.22-33.45,10.22-17.36,5.1-28.85,15.06S177,188.1,172.92,200s-21.45,19.75-21.45,19.75S127,234.39,111,254.48s-48.34,48-48.34,48S52.06,309,40.15,310.65s-33,4.77-38.47,22.47,4.09,36.76,4.09,36.76,3.74,2.39,2.72-6.8,6.81-27.58,17-26.56,12.94,4.43,4.09,9.53S4.06,361.71,10.19,365.12,25.85,360,25.85,360,59.21,339.59,66,328.69s34-36.76,44.94-39.83,62-38.12,62-38.12l56.17-54.81s9.19-5.45,8.51,6.81,6.8,51.74,6.8,51.74l111.66,4.09s16.34-36.77,16.34-59.24,22.86-6.64,22.86-6.64,35.36,29.79,66,41.36,40.85,9.54,55.83,21.45S555.55,280,555.55,280s7.83,9.87,23.15,19.41,27.24,10.89,27.24,10.89,7.15.34-4.77-10.21-13.62-10.9-13.62-10.9-.34-6.81,9.19-1.7,17,11.58,15,27.92,6.47,3.4,6.47,3.4,14.3-12.94,1.7-29.62-37.78-21.44-48-23.49-32.34-33.7-53.1-41.19-78.3-39.49-91.92-57.19-40.17-29.62-63-32-34-5.11-34.38-18.38-.34-34.3-.34-34.3Z"/><path class="cls-2" d="M329.18,89H288.7s3.59,30.27,9.08,34.3,17.74,14.49,18.38,24.58c.5,7.82-2.34,23.72-.58,34.09h0c.07.38.14.75.22,1.11a14.12,14.12,0,0,0,2.65,6.16c4.89,5.82,17.62,20,22.28,42.74a88,88,0,0,1,1.3,25.54c0,.17,0,.34,0,.51l14.09.52s16.34-36.77,16.34-59.24c0-13.42,8.16-13.17,14.73-10.8h0L383,139.31h0c-.78-.25-1.56-.48-2.35-.7l-.14,0-2.19-.59-.27-.07c-.68-.18-1.36-.35-2.05-.51l-.39-.09c-.63-.15-1.27-.28-1.9-.42l-.51-.11-1.78-.35-.59-.11L369.1,136l-.65-.11c-.57-.09-1.12-.17-1.68-.24l-.62-.09-2.26-.27c-22.8-2.38-34-5.11-34.38-18.38-.22-8.67-.3-20.64-.33-27.91Z"/><path class="cls-2" d="M233.51,186.57c.21.69-47.74,48.25-55.66,55.12s-65.11,41.9-71,42.15S64,318.57,64.49,321.12s-9.92,18.89-10,19C59.62,336,64,331.93,66,328.69c6.81-10.89,34-36.76,44.94-39.83s62-38.12,62-38.12l56.17-54.81s5.12-3,7.43.53l.06-.36C237.18,191.21,233,184.9,233.51,186.57Z"/><path class="cls-2" d="M487.53,238.67c-19.91-5.1-48.22-19.93-54.84-23.78-7.69-4.47-44.46-33.94-48.8-35.29-3.14-1-3.74,4.58-3.83,7.73,6.64-.55,15.2,5.36,15.2,5.36s35.36,29.79,66,41.36,40.85,9.54,55.83,21.45c10.74,8.55,25.85,17.44,33.55,21.79,0,0,.74-3.66-8.45-17.19S507.45,243.78,487.53,238.67Z"/><path class="cls-2" d="M587.55,289.2l1,.53A3.81,3.81,0,0,0,587.55,289.2Z"/><path class="cls-2" d="M616.15,298.39c-1.36-6.46-21.79-15.31-31-18.72s2.38,9.53,2.38,9.53-.34-6.81,9.19-1.7,17,11.58,15,27.92c-.9,7.21.26,8.71,1.83,8.15C613.56,323.53,617.51,304.86,616.15,298.39Z"/><path class="cls-2" d="M21.34,327.25c-4,1.95-13.79,14.63-14.13,20.25s-2.38,12.26-1,18c.82,3.44,1.22,4.28,1.4,4.41.77-.61,1.39-2.35.9-6.79-1-9.2,6.81-27.58,17-26.56,7,.7,10.48,2.52,9.13,5.24,0,0,12.83-.81,12-7.37S25.34,325.29,21.34,327.25Z"/></g><g id="Dress"><path class="cls-3" d="M399.1,861.92c.3-141.73.91-453.26.62-456.33-1.12-12.07-24.3-78.51-34.61-88.81-4.29-4.29-17.9-37.28-6.32-56.34s20.78-75.12,21.27-71.07c.26,2.11,24.83,13.66,24.83,13.66-3-6.67,13-44.59,13-44.59s1.69,1.19-9.71-7.62c-11.64-9-37.45-14-37.45-14l-14.3-2.38L355,137c-57.1,107.07-98.55-1.27-98.55-1.27l-17.94,5.11s-29,7.4-37.72,19.65S185,182,185,182s15.51,39.83,14.82,44c0,0,27.07-31.27,34.22-30.25,1.12.16,1.95.27,2.56.34,0,4,.51,42.68,8.92,65,9.46,25.08.36,45-8.32,55.72s-35.33,51.06-35.33,88.85V406l.15,453c-2.24,67.74-51.15,71.82-51.15,71.82H450.12S402.66,926.78,399.1,861.92Z"/><path class="cls-4" d="M450.08,930.73c-.16,0-.91-.09-2.1-.31-.43-.08-.91-.17-1.43-.29-1.24-.27-2.74-.65-4.45-1.2-.75-.24-1.55-.51-2.38-.82l-1.5-.58-.36-.15c-.58-.24-1.17-.5-1.78-.77-1.06-.48-2.16-1-3.28-1.62l-1.28-.71c-1.59-.91-3.23-1.95-4.87-3.12-.44-.31-.87-.63-1.3-1a57,57,0,0,1-9.44-9.07q-1.43-1.71-2.79-3.65c-.69-1-1.36-2-2-3s-1.26-2.09-1.86-3.19a68.18,68.18,0,0,1-3.1-6.41c-.52-1.23-1-2.51-1.5-3.83s-.9-2.62-1.32-4c-.29-.95-.57-1.91-.83-2.9a103.79,103.79,0,0,1-2.93-16.31c-.19-1.91-.35-3.88-.46-5.9.3-141.73,4.62-413.74.62-456.33-1.13-12.07-24.3-78.51-34.61-88.81-4.29-4.29-17.9-37.28-6.32-56.34s20.78-75.12,21.27-71.07a.5.5,0,0,0,.09.2.43.43,0,0,0,0,.07,2.31,2.31,0,0,0,.16.19l.06.07.31.28.1.08.31.25.17.12.35.25.17.12.54.36.3.19.34.21.36.22.33.2.8.47.25.15.55.31.19.11c.67.38,1.38.77,2.11,1.16l-.49-5.86h0L383,139.87c-6.94-2-12.3-3-12.3-3l-14.3-2.38L355,137c-14.26,26.75-27.55,40.05-39.46,45h0c.07.38.14.75.22,1.11a14.12,14.12,0,0,0,2.65,6.16c4.89,5.82,17.62,20,22.28,42.74a88,88,0,0,1,1.3,25.54c-3.45,38-3.2,62.33,1.11,74.22C347.21,343,380.27,414.31,379,512.35s2.11,392.51-45.15,418.39H450.08Z"/><path class="cls-4" d="M234,195.76c1.12.16,1.95.27,2.56.34.6-4.89-3.58-11.2-3.07-9.53.13.43-18.57,19.19-34.53,34.86a15.63,15.63,0,0,1,.82,4.58S226.87,194.74,234,195.76Z"/><path class="cls-4" d="M383.89,179.6c-4.34-1.36-3.83,9.77-3.83,9.77.26,2.11,24.83,13.66,24.83,13.66-.66-1.47-.39-4.48.42-8.26C395.26,187.17,386,180.24,383.89,179.6Z"/><path class="cls-5" d="M380.06,189.37a.5.5,0,0,0,.09.2.43.43,0,0,0,0,.07,2.31,2.31,0,0,0,.16.19l.06.07.1.09.21.19.1.08.26.21.05,0,.17.12.06,0,.3.22.16.11.36.24.18.12.3.19.14.09.2.12.36.22.33.2.8.47.18.11.07,0,.55.31h0l.18.1c.67.38,1.38.77,2.11,1.16l-.49-5.86h0l-.64-7.49a13.79,13.79,0,0,0-2.6-1.44C379.55,178.24,380.06,189.37,380.06,189.37Z"/></g><g id="Ornament"><path class="cls-6" d="M282.94,874.29c0-.48,0-.95,0-1.44C282.94,848.64,282.93,857.22,282.94,874.29Z"/><path class="cls-6" d="M332,874.29c0,20.89,0,54.5,0,56.36v-57.8c0-188.61-4-377.22-4-565.83,0-44.32,4-88.65,4-133-1.31,1.42-10.08,10.54-24.12,10.23-8.61-.19-16.28-4.54-22.81-10.55H283c0,44.78,4,88.56,4,133.35,0,188.25-4,377.51-4,565.77v57.8c0-1.86,0-35.47,0-56.36-.65,53.28-38.62,56.45-38.62,56.45H370.61S332.64,927.57,332,874.29Z"/><path class="cls-6" d="M332,872.85c0,.49,0,1,0,1.44C332,857.22,332,848.64,332,872.85Z"/><path class="cls-7" d="M374.74,137.74c-2.5-.58-4-.88-4-.88l-14.3-2.38L355,137c-57.1,107.07-98.55-1.27-98.55-1.27l-17.94,5.11h0c22,111.06,104.75,117.18,136.19-3.13Z"/><path class="cls-7" d="M278.94,874.29c0-.48,0-.95,0-1.44C278.94,848.64,278.93,857.22,278.94,874.29Z"/><path class="cls-7" d="M328,874.29c0,20.89,0,54.5,0,56.36v-57.8c0-188.61-4-377.22-4-565.83,0-44.32,4-88.65,4-133-1.31,1.42-10.08,10.54-24.12,10.23-8.61-.19-16.28-4.54-22.81-10.55H279c0,44.78,4,88.56,4,133.35,0,188.25-4,377.51-4,565.77v57.8c0-1.86,0-35.47,0-56.36-.65,53.28-38.62,56.45-38.62,56.45H366.61S328.64,927.57,328,874.29Z"/><path class="cls-7" d="M328,872.85c0,.49,0,1,0,1.44C328,857.22,328,848.64,328,872.85Z"/><path class="cls-8" d="M347.07,930.74s-26.13-3.25-28.84-55.76c0-2.87,0-5.84,0-8.9,0-11.75-3.39-194.16-3.72-559,0-36.17,3.91-80.89,3.83-126.36a28.76,28.76,0,0,1-14.52,3.58,30.52,30.52,0,0,1-15.06-4.67c0,26.43,3.94,100.51,3.94,127.39,0,56.9-3.89,558.51-3.89,559.09q0,4,0,7.8c-2.4,53.58-28.9,56.86-28.9,56.86h87.14Z"/><path class="cls-6" d="M333.87,930.74h32.74a40.43,40.43,0,0,1-22.36-11.1C341.09,924.89,337.65,928.67,333.87,930.74Z"/><path class="cls-9" d="M333.87,930.74h13.2A20.76,20.76,0,0,1,338.7,927,20.72,20.72,0,0,1,333.87,930.74Z"/><path class="cls-7" d="M433.68,174.64c-5.26-4.17-4.2-3.92-6.81-7.31a72,72,0,0,0-22.47-18.79s.79,48.9-1.26,53.66l30.54,25.64C431.32,216,433.68,174.64,433.68,174.64Z"/><path class="cls-7" d="M184.84,181.67s16.56,45.8,15.86,50c0,0,12.23-18.15,21.36-28.57,0,0-2.07-2.07-4.59-7.73C211.58,182.12,198.34,164,198.34,164Z"/><path class="cls-6" d="M352.38,141.89l-.39.68-.93,1.64-.73,1.22c-.19.34-.39.68-.59,1l-.69,1.13-.62,1-.67,1.07-.64,1-.67,1-.63,1-.89,1.35-.4.59-1,1.54-.23.33q-.53.75-1.05,1.47l-.23.34L340.74,160l-.05.05c-.34.47-.69.92-1,1.37l-.22.3-1.12,1.41-.14.18c-.35.44-.7.86-1,1.27l-.22.26-1,1.17-.25.3-1.09,1.22-.15.17-1.12,1.21-.12.13c-.38.4-.75.79-1.13,1.17l-.09.1c-.39.4-.79.78-1.18,1.16l0,0c-.78.76-1.55,1.47-2.32,2.15l-.1.09c-.38.34-.76.66-1.14,1l-.05.05c-.8.66-1.58,1.28-2.37,1.87h0a47.31,47.31,0,0,1-5.78,3.71h0c-.76.41-1.51.78-2.25,1.12h0l-1.11.49h0c.07.38.14.75.22,1.11a14.12,14.12,0,0,0,2.65,6.16,103.62,103.62,0,0,1,16.11,24.11c16.07-13.73,30.55-38.72,40.19-75.63-2.49-.58-4-.88-4-.88l-14.3-2.38L355,137c-.65,1.23-1.31,2.42-2,3.6Z"/><path class="cls-10" d="M317.91,180.93c-.62.33-1.4.71-2.33,1.1.06.36.14.72.21,1.07a14.51,14.51,0,0,0,2.53,6q0-4.2,0-8.41Z"/><path class="cls-10" d="M333.87,930.74h13.2a20.75,20.75,0,0,1-8.36-3.76A21.2,21.2,0,0,1,333.87,930.74Z"/><path class="cls-6" d="M198.47,221.92c1.48,5,2.41,8.66,2.23,9.71,0,0,12.23-18.15,21.36-28.57a16.05,16.05,0,0,1-1.92-2.62C213.68,206.92,205.77,214.77,198.47,221.92Z"/><path class="cls-6" d="M432.69,214.89c-4.2-2.44-17.06-12.33-28.58-21-.22,4.22-.53,7.31-1,8.34l30.54,25.64A85,85,0,0,1,432.69,214.89Z"/></g><g id="Sash"><path class="cls-6" d="M378.69,342.58c-4.61-10.63-10.4-22.62-13.58-25.8A10.92,10.92,0,0,1,363.8,315c-1.55-2.47-51.91,40.22-60.33,40.22s-62.5-43.49-65-40.13c-.43.57-.86,1.13-1.29,1.66a170.67,170.67,0,0,0-14.39,21.78c-5,8.91,76.68,67.89,80.68,67.89C307.64,406.45,383.85,354.49,378.69,342.58Z"/><path class="cls-11" d="M364.62,316.21c-.12-.15-.24-.31-.36-.49a.86.86,0,0,1-.07-.1c-.13-.19-.26-.38-.39-.59-.66-1-10.09,6-21.38,14.52.22.78.46,1.51.71,2.21,1.56,4.29,7.35,17.36,13.84,37.34,13.5-11.28,23.72-21.91,21.72-26.52-4.61-10.63-10.4-22.62-13.58-25.8-.12-.12-.25-.27-.38-.43A1.71,1.71,0,0,0,364.62,316.21Z"/><path class="cls-7" d="M377.31,339.11c-4.61-10.62-9-19.15-12.2-22.33A10.92,10.92,0,0,1,363.8,315c-1.55-2.47-51.91,40.22-60.33,40.22s-62.5-43.49-65-40.13c-.43.57-.86,1.13-1.29,1.66a170.67,170.67,0,0,0-14.39,21.78c-5,8.91,76.68,62.89,80.68,62.89C307.64,401.45,382.47,351,377.31,339.11Z"/><path class="cls-6" d="M373.32,330.36c-.18-.36-.35-.72-.53-1.07l-.22-.46-.48-.94-.26-.53-.64-1.22c-.15-.29-.3-.58-.45-.85s-.22-.42-.33-.62-.25-.46-.38-.68-.21-.38-.32-.57l-.38-.68-.3-.5-.42-.7-.24-.4-.64-1-.13-.2-.5-.73-.22-.3c-.13-.19-.27-.37-.4-.55s-.15-.19-.22-.28l-.4-.49c-.07-.07-.13-.15-.19-.22s-.38-.42-.56-.6-.25-.27-.38-.43a1.71,1.71,0,0,0-.11-.14c-.12-.15-.24-.31-.36-.49a.86.86,0,0,1-.07-.1c-.13-.19-.26-.38-.39-.59-.66-1-10.09,6-21.38,14.52.22.78.46,1.51.71,2.21,1.46,4,6.63,15.74,12.61,33.62,13.37-11.07,23.53-21.57,21.58-26.23-1.32-3-2.62-5.91-3.88-8.53Z"/></g><g id="Head"><path class="cls-1" d="M350.11,102s-9.69,16.25-24.67,19S303,126.09,296,111.48s-8.68-31-8.68-31-7-.34-5.79-13.44,7.32-11.75,7.32-11.75,3.57,1,3.57,3.58S289,21.63,306.53,15s53.79-8,56,14.64,3.24,13.62,0,25.7-5.61,37.11-10.89,45.28S350.11,102,350.11,102Z"/></g><g id="Head_Shadow" data-name="Head Shadow"><path class="cls-2" d="M329.6,119.84s8.48-4.57,13.1-8.71c.7-.68,1.34-1.37,1.95-2l.18-.24c3.23-4.51,5.87-8.17,5.87-8.17s-11.32-10.12-13.1-18.21-6.3-35.57-6.3-35.57-.09-10.64-6.38-14.13-7.41-3-7.41-3-4,14.33-10.8,22.13c0,0,14.36-7.53,14.4-14.3s9.42,8.17,8.06,14.3-.34,35.74,3.06,38.12-8.63-.34-9.25,3.07,5.32,8.17-2.41,12.93-18.38,11.44-18.38,11.44a93.11,93.11,0,0,1-13-26.37A98.44,98.44,0,0,0,296,111.48c7,14.61,14.47,12.28,29.46,9.51a26.35,26.35,0,0,0,4.16-1.15Z"/></g><g id="Eyes"><path class="cls-12" d="M358.82,64.05a17.58,17.58,0,0,1-3.84-.8,32.21,32.21,0,0,0-7.8-3.07c-4.12-.94-11.14,4.27-11.14,4.27a24,24,0,0,1,6.67-1.73,5.76,5.76,0,0,1,.69-.07l-.09.31a3.49,3.49,0,0,0,6.79,1.55,2.78,2.78,0,0,0,.07-.57,21.25,21.25,0,0,0,2.86,1C355.27,65.37,358.82,64.05,358.82,64.05Z"/><path class="cls-12" d="M306.07,59.54a17.56,17.56,0,0,0,3.89.53,32.33,32.33,0,0,1,8.37-.27c4.2.5,9.06,7.76,9.06,7.76a24.52,24.52,0,0,0-5.7-3.87c-.21-.11-.42-.2-.63-.3,0,.11,0,.22,0,.33a3.48,3.48,0,0,1-6.91-.82,2.53,2.53,0,0,1,.12-.56,22.35,22.35,0,0,1-3,0C309,62,306.07,59.54,306.07,59.54Z"/></g><g id="Hair"><path class="cls-13" d="M275,81.37s-8.08-33-.51-45.36,10-19.23,18-23.74,13-7.83,23.92-8.51,2.72.76,2.72.76S337.26-2.12,345.77.69s23.66,5.53,30.29,23.41,11.41,39.74,11.41,39.74a79.81,79.81,0,0,0,15.32,20.51c9.78,9.19,7,4.17,13.19,16.85s4.68,35.83,1.79,45.71-5.88,16.08-3.58,23.91,12.68,25.28,7.49,35.15S407.89,226,407,229.46s5.7,2.64-1.7,8.17-23,6.81-29.11-5.19-6.63-20.34-14.55-19.66-20.42-12.77-22.3-20.43-3.32-7.23-3.15-18.81,1.62-20.25-.25-30.63a176.28,176.28,0,0,0-6.38-23.07s12-6.47,15.23-11,5.87-8.17,5.87-8.17-11.32-10.12-13.1-18.21-6.3-35.57-6.3-35.57-.09-10.64-6.38-14.13-7.41-3-7.41-3-4.94,17.62-13.11,24.42-10.84,6.54-10.84,6.54-1.9-6.39-6.48-5.25c-4.8,1.19-6.09,13-5.38,17.18,1.16,6.83,5.6,7.83,5.6,7.83a133,133,0,0,1-.87,24.41C286,108.43,275,81.37,275,81.37Z"/><path class="cls-14" d="M345.75,203c.43.5.88,1,1.34,1.46A7.47,7.47,0,0,0,345.75,203Z"/><path class="cls-14" d="M329.6,119.84A176.28,176.28,0,0,1,336,142.91c1.87,10.38.42,19.06.25,30.63s1.28,11.15,3.15,18.81c.64,2.61,2.52,5.9,5,9.07-4.77-8.46,15.07-26.37,20.18-57.58,5.47-33.36-13.89-43.15-13.89-43.15s-2.64,3.66-5.87,8.17S329.6,119.84,329.6,119.84Z"/><path class="cls-14" d="M331.87,50.36S334,29.67,318,17.67h0a11.41,11.41,0,0,1-.45,12.13S330.79,30.82,331.87,50.36Z"/></g></svg>