<svg xmlns="http://www.w3.org/2000/svg" viewBox="0 0 794.4 440.89"><defs><style>.cls-1{fill:#b5843e;}.cls-2{fill:#ffeb99;}.cls-3,.cls-4{fill:none;}.cls-3{stroke:#725228;stroke-width:10px;}.cls-3,.cls-4,.cls-7{stroke-miterlimit:10;}.cls-4{stroke:#b5843e;stroke-width:4px;}.cls-5{fill:#a31a1a;}.cls-6,.cls-7{fill:#cc3232;}.cls-7{stroke:#a31a1a;stroke-width:0.5px;}.cls-8{fill:#efefef;}</style></defs><title>envelope</title><g id="Envelope"><polygon class="cls-1" points="793.11 438.72 784.76 438.35 777.59 439.99 770.42 436.8 763.25 437.53 756.08 435.41 748.91 438.98 741.74 436.94 734.57 435.35 727.39 439.13 720.22 438.44 713.05 436.47 705.88 437.19 698.72 436.2 691.55 435.56 684.38 437.14 677.22 435.71 670.05 439.14 662.89 437.86 655.72 436.94 648.55 439.09 641.38 439.97 634.21 436.9 627.04 435.82 619.87 436.28 612.7 439.38 605.53 435.63 598.36 438.5 591.2 439.77 584.03 435.09 576.86 435.18 569.69 439.51 562.51 437.86 555.34 436 548.17 439.33 541.01 437.97 533.84 435.9 526.67 435.94 519.5 437.49 512.33 437.51 505.16 438.69 497.98 438.44 490.81 439.45 483.64 438.79 476.48 438.41 469.31 436.4 462.13 437.66 454.96 439.84 447.79 435.18 440.62 438.18 433.45 435.33 426.28 436.9 419.11 439.81 411.93 438.85 404.76 436.21 397.59 435.89 390.42 435.71 383.25 438.15 376.07 439.13 368.9 437.15 361.73 439.56 354.56 438.97 347.39 438.4 340.21 438.64 333.04 437.65 325.87 437.78 318.69 437.96 311.52 435.3 304.35 437.63 297.18 436 290 435.44 282.83 439.53 275.65 437.44 268.48 438.58 261.31 439.13 254.13 435.76 246.96 436.18 239.79 438.76 232.61 438.8 225.44 438.95 218.26 438.81 211.09 435.46 203.92 438.56 196.75 439.87 189.58 439.29 182.41 437.16 175.23 437.63 168.06 437.33 160.89 439.13 153.72 438.62 146.54 437.23 139.37 439.8 132.19 435.92 125.02 439.48 117.84 439.36 110.67 436.91 103.49 438.88 96.31 436.03 89.14 435.86 81.96 438.14 74.78 435.91 67.61 435.14 60.43 438.38 53.26 439.11 46.08 439.26 38.9 436.63 31.72 437.65 24.55 438.03 17.37 439.19 10.18 438.19 2.8 437.75 3.09 430.31 2.66 423.06 1.5 415.81 1.41 408.56 1.53 401.31 2.56 394.07 4.14 386.82 0.95 379.57 4.27 372.32 2.85 365.07 4.5 357.82 1.33 350.57 2.11 343.32 3.24 336.07 4.58 328.82 3.23 321.57 0.66 314.32 1.71 307.07 1.04 299.82 4.26 292.57 2.06 285.32 2.09 278.07 3.75 270.82 2.93 263.57 3.08 256.32 1.72 249.07 4.49 241.82 2.09 234.57 1.67 227.32 4.89 220.07 2.04 212.81 1.14 205.57 2.02 198.32 4.79 191.07 2.15 183.82 3.57 176.58 5.38 169.33 4.67 162.08 3.53 154.83 4.22 147.57 1.47 140.32 0.91 133.07 3.41 125.82 2.83 118.57 2.87 111.32 3.81 104.07 3.83 96.81 3.24 89.56 2.23 82.31 3.67 75.05 2.18 67.8 4.77 60.55 4.54 53.29 3.02 46.04 2.19 38.78 5.27 31.53 4.54 24.27 2.67 17.01 3.79 9.75 2.47 1.97 10.17 0.78 17.34 1.68 24.51 2.62 31.68 1.08 38.85 4.57 46.02 2.29 53.19 0.69 60.36 4.78 67.53 3.22 74.71 2.54 81.88 1.76 89.04 2.22 96.21 2.84 103.38 4.86 110.54 0.08 117.71 1.46 124.88 0.25 132.04 3.31 139.21 1.15 146.38 4.89 153.55 1.96 160.72 0.67 167.89 0.87 175.06 0.88 182.23 2.03 189.4 0.15 196.56 3.96 203.73 0.8 210.9 3.75 218.07 4.87 225.24 0.03 232.41 2.87 239.58 2.26 246.75 0.46 253.92 3.49 261.09 2.35 268.26 3.28 275.43 3.76 282.6 0.85 289.77 4.59 296.94 4.93 304.11 3.15 311.28 1.59 318.45 0.18 325.62 2.77 332.79 3.43 339.97 1.03 347.14 4.06 354.31 0.33 361.48 0.71 368.65 1.48 375.82 2.59 382.99 4.81 390.17 0.31 397.34 0.14 404.51 0.51 411.68 0.56 418.85 3.16 426.03 4.89 433.2 1.86 440.37 0.01 447.54 3.55 454.72 1.52 461.89 1.65 469.06 4.35 476.23 3.89 483.41 3.6 490.58 2.46 497.75 4.03 504.93 4.28 512.1 3.46 519.27 2.75 526.45 1.19 533.62 2.41 540.79 0.4 547.97 1.05 555.14 3.96 562.32 1.82 569.49 4.85 576.66 2.69 583.84 0 591.01 3.91 598.18 4.33 605.35 3.47 612.52 4.07 619.69 1.67 626.87 0.12 634.04 1.77 641.21 2.01 648.39 0.7 655.56 0.39 662.74 3.51 669.91 0.95 677.09 0.38 684.26 3.65 691.44 1.51 698.61 3.11 705.79 0.63 712.97 3.53 720.14 3.63 727.32 3.03 734.5 2.4 741.67 3.43 748.85 1.25 756.03 0.56 763.2 2.21 770.38 2.15 777.56 2.48 784.75 4.47 791.08 3.34 790.2 9.74 792.79 16.99 790.39 24.24 792.65 31.49 793.6 38.73 790.07 45.98 791.03 53.23 792.17 60.48 794.4 67.73 789.43 74.98 793.34 82.23 792.02 89.48 791.96 96.73 793.92 103.98 789.87 111.23 793.91 118.47 793.51 125.73 791.83 132.98 792.43 140.23 789.64 147.48 789.48 154.73 792.11 161.98 793.07 169.23 789.78 176.48 790.14 183.73 790.65 190.98 790.51 198.23 789.52 205.48 792.52 212.73 793.08 219.98 792.24 227.23 793.74 234.48 793.97 241.73 792.54 248.97 789.91 256.23 790.75 263.47 791.28 270.72 793.11 277.97 793.17 285.22 791.84 292.47 791.76 299.72 792.19 306.98 789.58 314.23 791.06 321.48 790.19 328.73 792.59 335.98 790.78 343.24 792.35 350.49 793.03 357.74 792.66 365 792.67 372.25 793.48 379.5 793.85 386.76 790.25 394.01 789.53 401.26 793.93 408.52 791.3 415.78 793.69 423.04 789.93 430.45 793.11 438.72"/><polygon class="cls-2" points="784.6 430.17 776.25 429.8 769.09 431.44 761.92 428.25 754.75 428.97 747.59 426.86 740.42 430.43 733.26 428.39 726.09 426.8 718.92 430.58 711.76 429.88 704.6 427.91 697.43 428.64 690.27 427.65 683.11 427 675.95 428.58 668.79 427.16 661.62 430.58 654.46 429.31 647.29 428.38 640.12 430.54 632.96 431.42 625.79 428.35 618.63 427.26 611.47 427.73 604.3 430.83 597.14 427.08 589.98 429.95 582.81 431.22 575.64 426.54 568.48 426.63 561.31 430.96 554.14 429.31 546.98 427.45 539.82 430.77 532.65 429.41 525.49 427.35 518.32 427.39 511.15 428.94 503.98 428.95 496.82 430.14 489.65 429.88 482.49 430.9 475.32 430.23 468.16 429.86 460.99 427.84 453.82 429.11 446.65 431.29 439.49 426.63 432.32 429.62 425.15 426.78 417.99 428.35 410.82 431.26 403.65 430.3 396.48 427.65 389.32 427.34 382.15 427.16 374.98 429.6 367.81 430.58 360.64 428.59 353.48 431 346.31 430.41 339.14 429.85 331.97 430.09 324.8 429.1 317.63 429.23 310.46 429.41 303.3 426.74 296.13 429.08 288.96 427.45 281.79 426.89 274.62 430.98 267.45 428.89 260.28 430.03 253.11 430.58 245.94 427.21 238.77 427.63 231.6 430.21 224.43 430.24 217.26 430.39 210.1 430.26 202.93 426.91 195.76 430 188.59 431.32 181.43 430.74 174.26 428.61 167.09 429.07 159.92 428.77 152.75 430.57 145.58 430.07 138.41 428.67 131.24 431.25 124.07 427.36 116.9 430.92 109.73 430.81 102.56 428.36 95.39 430.32 88.21 427.48 81.04 427.31 73.86 429.58 66.7 427.36 59.52 426.58 52.35 429.82 45.18 430.55 38 430.7 30.83 428.08 23.66 429.1 16.48 429.48 8.14 430.15 8.66 421.77 9.02 414.53 9.39 407.3 8.96 400.07 7.8 392.84 7.71 385.6 7.83 378.37 8.86 371.13 10.44 363.9 7.25 356.67 10.57 349.43 9.15 342.2 10.79 334.96 7.63 327.73 8.41 320.49 9.54 313.26 10.87 306.02 9.53 298.79 6.96 291.56 8.01 284.32 7.34 277.08 10.56 269.85 8.36 262.62 8.39 255.38 10.05 248.14 9.23 240.91 9.38 233.67 8.02 226.44 10.79 219.2 8.39 211.97 7.97 204.74 11.19 197.51 8.34 190.27 7.44 183.04 8.32 175.81 11.09 168.57 8.45 161.34 9.87 154.1 11.67 146.86 10.96 139.63 9.83 132.39 10.52 125.16 7.76 117.92 7.21 110.68 9.71 103.44 9.13 96.2 9.17 88.97 10.11 81.73 10.12 74.49 9.53 67.25 8.53 60.01 9.97 52.77 8.48 45.54 11.07 38.3 10.84 31.05 9.32 23.81 8.49 16.57 10.91 10.92 16.46 10.86 23.63 8.99 30.8 10.12 37.96 8.58 45.13 7.61 52.29 8.51 59.46 9.45 66.63 7.91 73.79 11.4 80.96 9.12 88.12 7.52 95.28 11.61 102.44 10.05 109.61 9.37 116.77 8.59 123.93 9.05 131.09 9.67 138.26 11.69 145.42 6.91 152.59 8.29 159.76 7.08 166.92 10.14 174.09 7.98 181.25 11.72 188.41 8.79 195.57 7.5 202.74 7.7 209.9 7.71 217.07 8.86 224.24 6.98 231.41 10.79 238.57 7.63 245.74 10.57 252.9 11.7 260.06 6.86 267.23 9.7 274.39 9.09 281.56 7.29 288.73 10.32 295.9 9.18 303.06 10.11 310.23 10.59 317.39 7.68 324.56 11.42 331.73 11.76 338.9 9.98 346.06 8.42 353.23 7.01 360.39 9.6 367.56 10.26 374.73 7.86 381.9 10.89 389.07 7.16 396.23 7.54 403.4 8.31 410.57 9.42 417.74 11.64 424.9 7.14 432.07 6.97 439.24 7.34 446.41 7.39 453.58 9.99 460.75 11.72 467.91 8.7 475.08 6.84 482.25 10.38 489.42 8.35 496.59 8.48 503.76 11.18 510.93 10.72 518.1 10.43 525.27 9.29 532.43 10.86 539.6 11.11 546.77 10.29 553.94 9.59 561.11 8.02 568.28 9.24 575.45 7.23 582.62 7.88 589.78 10.79 596.95 8.65 604.12 11.68 611.29 9.52 618.46 6.83 625.63 10.73 632.79 11.16 639.96 10.3 647.13 10.9 654.3 8.49 661.47 6.95 668.64 8.6 675.81 8.84 682.99 7.53 690.16 7.22 697.33 10.34 704.5 7.78 711.68 7.21 718.85 10.48 726.02 8.34 733.19 9.94 740.36 7.46 747.54 10.36 754.71 10.46 761.88 9.86 769.06 9.23 776.24 10.26 784.3 8.45 785.36 16.56 783.7 23.79 783.76 31.02 783.44 38.26 781.45 45.49 782.22 52.72 781.69 59.96 784.28 67.19 781.88 74.42 784.14 81.66 785.09 88.89 781.56 96.13 782.52 103.36 783.66 110.6 785.89 117.83 780.92 125.07 784.83 132.3 783.51 139.53 783.45 146.77 785.41 154 781.36 161.24 785.4 168.48 785 175.71 783.32 182.95 783.92 190.18 781.13 197.42 780.97 204.65 783.6 211.89 784.56 219.13 781.27 226.36 781.63 233.59 782.14 240.82 782 248.06 781.01 255.29 784.01 262.52 784.57 269.76 783.73 276.99 785.23 284.23 785.46 291.46 784.03 298.7 781.4 305.93 782.24 313.17 782.77 320.41 784.6 327.64 784.66 334.88 783.33 342.12 783.25 349.36 783.68 356.6 781.07 363.84 782.55 371.07 781.68 378.31 784.08 385.55 782.27 392.79 783.84 400.03 784.52 407.27 784.15 414.51 784.16 421.7 784.6 430.17"/><path class="cls-1" d="M9,13V432.7H783.15c-444.09,0-712.89,19.49-744.95-46.11C2,312.38,9.91,210.27,9,13Z" transform="translate(-2.37 -1.34)"/><polyline class="cls-3" points="8.76 280.81 15.96 280.45 23.16 284.05 30.36 284.77 37.56 280.37 44.75 283 51.95 280.61 59.15 284.37 66.35 283.19 73.55 280.68 80.74 283.63 87.94 284.74 95.13 282.27 102.33 283.3 109.52 281.05 116.71 280.76 123.91 284.29 131.1 284.49 138.3 284.49 145.5 280.85 152.7 281 159.9 284.32 167.09 282.13 174.29 282.57 181.48 284 188.68 284.76 195.87 280.58 203.07 280.75 210.26 281.02 217.46 281.65 224.66 282.46 231.86 280.38 239.06 284.03 246.26 284.16 253.45 283.98 260.65 284.29 267.85 282.27 275.04 280.53 282.24 284.14 289.44 282.75 296.64 280.63 303.84 280.97 311.04 279.89 318.23 279.96 325.43 281.28 332.63 281.47 339.83 283.8 347.03 284.82 354.23 284.17 361.43 284.49 368.62 283.63 375.82 280.62 383.02 284.19 390.22 280.24 397.42 280.45 404.62 281.26 411.82 280.6 419.02 284.6 426.22 284.43 433.42 283.63 440.62 281.66 447.82 282.2 455.02 280.25 462.22 283.59 469.42 284.82 476.63 280.88 483.82 281.08 491.02 280.38 498.23 280.66 505.43 281.04 512.63 283.1 519.83 281.84 527.03 280.84 534.23 281 541.43 284.54 548.63 280.16 555.84 283.12 563.04 281.92 570.24 281.18 577.44 280.69 584.64 283.93 591.84 283.5 599.04 282.34 606.24 283.45 613.43 281.43 620.63 283.89 627.84 284.26 635.04 279.89 642.24 284.54 649.44 279.99 656.64 279.89 663.84 284.53 671.05 280.89 678.25 281.78 685.45 282 692.66 284.05 699.86 284.17 707.07 281.65 714.27 283.68 721.48 283.48 728.68 283.92 735.88 282.44 743.09 283.05 750.29 281.91 757.5 283.06 764.7 280.19 771.91 281.34 779.12 282.61 786.34 281.3"/><polyline class="cls-4" points="8.76 278.35 15.96 277.98 23.16 281.58 30.36 282.3 37.56 277.9 44.75 280.53 51.95 278.14 59.15 281.9 66.35 280.73 73.55 278.21 80.74 281.16 87.94 282.27 95.13 279.81 102.33 280.83 109.52 278.58 116.71 278.3 123.91 281.82 131.1 282.02 138.3 282.02 145.5 278.38 152.7 278.53 159.9 281.85 167.09 279.67 174.29 280.11 181.48 281.53 188.68 282.3 195.87 278.12 203.07 278.28 210.26 278.55 217.46 279.18 224.66 280 231.86 277.91 239.06 281.56 246.26 281.69 253.45 281.51 260.65 281.82 267.85 279.81 275.04 278.06 282.24 281.68 289.44 280.28 296.64 278.16 303.84 278.51 311.04 277.42 318.23 277.5 325.43 278.81 332.63 279 339.83 281.33 347.03 282.36 354.23 281.7 361.43 282.02 368.62 281.17 375.82 278.16 383.02 281.72 390.22 277.77 397.42 277.98 404.62 278.8 411.82 278.13 419.02 282.13 426.22 281.96 433.42 281.17 440.62 279.19 447.82 279.73 455.02 277.78 462.22 281.12 469.42 282.35 476.63 278.41 483.82 278.62 491.02 277.91 498.23 278.19 505.43 278.58 512.63 280.63 519.83 279.37 527.03 278.37 534.23 278.53 541.43 282.08 548.63 277.7 555.84 280.65 563.04 279.45 570.24 278.71 577.44 278.23 584.64 281.46 591.84 281.04 599.04 279.87 606.24 280.99 613.43 278.97 620.63 281.42 627.84 281.79 635.04 277.42 642.24 282.08 649.44 277.52 656.64 277.42 663.84 282.06 671.05 278.42 678.25 279.31 685.45 279.53 692.66 281.58 699.86 281.71 707.07 279.19 714.27 281.22 721.48 281.01 728.68 281.46 735.88 279.97 743.09 280.59 750.29 279.44 757.5 280.6 764.7 277.73 771.91 278.87 779.12 280.15 786.34 278.83"/><path class="cls-1" d="M6.3,6.13l-.14,5.8L2.37,19.18l0,7.25,1.68,7.25-.41,7.25L5,48.17,7.1,55.42,4.76,62.67l0,7.25,2.61,7.25L4.43,84.42l-.64,7.25.6,7.25,2.2,7.25-3.08,7.25.84,7.25,1.4,7.25-.45,7.25-1.64,7.25-.05,7.25-.72,7.25.46,7.25.44,7.25L6,178.67l-.1,7.25.73,7.25-1.44,7.25-2.07,7.25L4,214.92l-1.19,7.25,2.13,7.25,1.4,7.25-2.12,7.25,1.92,7.25-2.38,7.25,2.47,7.24-3.36,7.25-.2,7.25,4,7.25-1.15,7.25.93,7.25.8,7.26-2.78,7.25-.7,7.25.15,7.25-.64,7.25.89,7.26,1.59,7.25-2.59,7.25-.59,7.26,4.78,7.25-.06,7.25L2.45,389l3.09,7.25-1.82,7.26,1.12,7.25L5.4,418l-.94,7.26-.07,7.26-.9,8.6L12,439.85l7.17.11,7.17-2,7.17,1,7.18,1.85L47.88,438l7.17,1.5,7.17-1.17,7.17.27,7.17,1.89,7.17-2,7.17-.07,7.17.47,7.16-.16,7.17,1,7.16,2.41,7.17-4.13,7.17.75,7.16-1.51,7.17,2.39,7.17-.28,7.18.12,7.17-1.58,7.17-.56,7.16,1,7.17.88,7.17-.45,7.16,3.25,7.17-4.31,7.17.41,7.17.39,7.18,2.33,7.17-3.09,7.17,3.46,7.17-.32,7.16.14,7.17-3.47,7.17,1.71,7.17,1.46,7.18-.58,7.17,1.88L306,437.6l7.17,2.85,7.17.37,7.17.36,7.17-1.3,7.17-2.46,7.17,3.14,7.17.23,7.17,1.34,7.17-1.6,7.17.42,7.18.63L392,438.9l7.17,1.94,7.17.72,7.17-1,7.18,1.06,7.17-1.76,7.17-2.15,7.17,4,7.18-.11,7.17-1.12,7.17-2.58,7.17,2.13,7.18-2.75,7.17,1.64,7.17.77,7.18.86,7.17-2.38,7.17-.5,7.18,2.18,7.17,2.05,7.17-1.42,7.18-2.49,7.17-.22,7.18,3,7.17.75,7.17.4,7.18-4.1,7.17,3.81,7.17-3.76L600,442l7.17-2.52,7.18-.9,7.17,1.11,7.17-.4,7.17,2.08,7.18-3.2,7.17,2.71,7.17-3.58,7.18.31,7.17,2.76,7.18-2.81,7.17.12,7.18,0,7.18,3.82,7.17-1.88,7.18.75,7.18-1.86,7.18,2.69,7.17-3.32,7.18,1,7.17.59,7.18,2.73,7.18-1,7.17-2.85,7.18,1.11,7.19.69,8.7,1-3.67-8.75,4.35-7.25L791.6,418l-.1-7.25,4.11-7.25-.86-7.24-3-7.25,1-7.25,3.31-7.25-2.69-7.25.41-7.25,1.68-7.25-4.18-7.25,3.89-7.25L793.55,331l.74-7.25,1.85-7.25-.87-7.25,0-7.25-1.66-7.25,2-7.25-1.85-7.25-2-7.25,1.25-7.25-.55-7.25,3.76-7.25-1-7.25.63-7.25,0-7.25-2.11-7.25-1-7.25,2.64-7.25-2.2-7.25,2.73-7.25L793.77,186l2.41-7.24-.12-7.25-3.36-7.25-.57-7.25,2.24-7.25-1.84-7.25.84-7.26-1-7.25-.54-7.25,1.27-7.25,2.44-7.25L795.8,99l-.37-7.25-.1-7.25-.73-7.26-3-7.25.82-7.25,3.47-7.26-2.67-7.25L794,41l-.71-7.25,1.49-7.26,1.4-7.25-.77-7.27-2.15-6.73L786.62,2.9l-7.18.67-7.17,3.5-7.17-.61-7.17-4-7.17,4.05-7.17-.58-7.17.52-7.17-1.12-7.17-1.8L714.91,4l-7.17-.52-7.17,2.67L693.4,3.47l-7.16.15-7.17,1.84-7.16-.72-7.17-.46L657.57,3,650.4,4.45l-7.17,1.76-7.17-.67-7.17,1-7.17-4.06-7.17,3.58-7.17-2.85-7.16,1.63-7.17.6L585.88,3.6l-7.17,1.12-7.17.38-7.17,0-7.17.81L550,5.7l-7.17,0-7.17-3.05h-7.17l-7.17.5-7.17,2.62L507,3.37l-7.17-.63-7.17,2.9L485.5,2.22l-7.17,2.72-7.17-2.12L464,4.27l-7.17,1.61-7.18-.53-7.17-.25L435.3,7l-7.17-2.16L421,7.05l-7.17-4-7.18.85-7.17,1.54-7.17-2.22L385.1,3l-7.17,2.55-7.18-1-7.17-.82-7.17,1.55-7.17-2.19-7.17.31-7.18,1.78-7.17-2.64-7.17,4-7.18-4.24L306.2,4.17l-7.17.7-7.17.48-7.18.3-7.17-3.24-7.17.66-7.18-.62L256,6.78l-7.18-4.56-7.17,3-7.17.29-7.18-3.16-7.17.08-7.18.94-7.17-1.06L198.6,5.48l-7.17,1.66-7.17-2.29-7.17-1.16-7.17-1-7.18-.07-7.17,2.67-7.18.43-7.17-2.26-7.17,1.61-7.18-2.24L119.7,4.9l-7.18-2.06-7.17,1.47L98.17,5.67,91,2.9,83.82,5.57l-7.18.48L69.46,2.31l-7.17,2.2L55.11,2.35l-7.18.52L40.76,6.6,33.58,5.52,26.4,6.77l-7.18,0L11.76,2.26ZM787.24,431.78l-8.62-.13-7.17-3.79-7.16,0-7.17,1.68-7.17-.41-7.16,1.33-7.17,2.09-7.17-2.34-7.16,0-7.17,2.62L707,429.92l-7.16-.64-7.16.6-7.16,2.2L678.31,429l-7.16.85L664,431.24l-7.17-.45-7.16-1.64-7.17,0-7.17-.73-7.16.46-7.17.44-7.16,2.24-7.16-.1-7.16.72-7.17-1.44-7.16-2.07-7.17.83-7.17-1.19-7.17,2.13-7.16,1.4-7.16-2.12-7.17,1.92L535,429.22l-7.17,2.47-7.16-3.36-7.17-.2-7.17,4L499.18,431l-7.16.93-7.17.8-7.16-2.78-7.17-.7-7.17.15-7.17-.64-7.16.89-7.17,1.59-7.16-2.59-7.17-.59-7.17,4.78-7.17-.06L406,427.94,398.85,431l-7.17-1.82-7.17,1.12-7.17.56-7.16-.94-7.17-.07-7.17-1.45-7.17,1.81-7.17-.11-7.16,2-7.17-1L320,429.31l-7.17,2.77-7.17-1.51-7.17,1.18-7.17-.27-7.17-1.89-7.16,2-7.17.07-7.17-.47-7.17.15-7.17-1-7.17-2.41L234,432l-7.17-.76-7.17,1.52-7.17-2.39-7.16.28-7.17-.12L191,432.14l-7.17.56-7.16-1-7.17-.88-7.17.44L155.12,428,148,432.35l-7.17-.41-7.17-.4-7.17-2.33-7.17,3.1-7.17-3.46-7.18.32L97.75,429l-7.17,3.47-7.17-1.71-7.18-1.46-7.17.58L61.89,428l-7.17,4.45-7.18-2.84-7.17-.38-7.17-.36L26,430.21l-7.18,2.45-6.6-2.89.46-6.66,1.35-7.24-1.61-7.23.42-7.23.63-7.24-2.68-7.23,1.95-7.24.72-7.23-1-7.23L13.55,358l-1.77-7.23-2.15-7.24,4-7.23-.12-7.23-1.12-7.24L9.84,314.6,12,307.36l-2.75-7.23,1.64-7.24.77-7.23.86-7.24-2.38-7.23L9.61,264l2.19-7.23,2-7.24-1.42-7.23L9.93,235l-.21-7.24,3-7.23.76-7.23.39-7.23-4.1-7.24,3.81-7.23-3.76-7.23,4.13-7.24-2.53-7.23-.9-7.24,1.12-7.23-.41-7.24L13.28,141l-3.2-7.24,2.71-7.24-3.58-7.23L9.53,112l2.76-7.24L9.47,97.54,9.6,90.3l0-7.24,3.81-7.24-1.88-7.23.75-7.24-1.86-7.24,2.69-7.24L9.82,39.63l1-7.24.59-7.24,2.73-7.24-1.39-6.17,6.08-2.4L26,10.45l7.17.69,7.17,1.65,7.16-4.28,7.17,4.35,7.16-4.39L69,8.38l7.17,4.1,7.16-.86,7.17-3,7.16,1L104.81,13,112,10.31l7.16.41,7.16,1.67,7.17-4.17,7.16,3.88,7.17-1.68,7.17.75L162.12,13l7.17-.88,7.16,0,7.16-1.65,7.17,2,7.16-1.84,7.16-2,7.17,1.25,7.17-.55,7.17,3.75,7.16-.95,7.17.64,7.16,0,7.17-2.1,7.16-1,7.16,2.64,7.17-2.2,7.17,2.74,7.17-2.21,7.16,2.41,7.17-.12,7.16-3.37L319.76,9l7.17,2.24,7.16-1.85,7.17.84,7.17-1,7.16-.55L362.76,10l7.17,2.43,7.17.27,7.16-.36,7.17-.11,7.17-.73,7.16-3,7.17.81,7.17,3.47,7.17-2.66,7.17.79,7.16-.71,7.17,1.49,7.17,1.4,7.17-.77,7.17-2.36,7.17,2.53,7.17-.67,7.17-3.5,7.16.61,7.17,4,7.17-4,7.17.58,7.17-.52,7.17,1.13L542,11.86l7.17-.52,7.17.51,7.17-2.67,7.17,2.69,7.17-.14L585,9.88l7.16.73,7.17.46,7.17,1.28,7.16-1.45,7.17-1.77L628,9.8l7.17-1,7.17,4.06,7.17-3.58,7.17,2.85,7.17-1.63L671,9.88l7.17,1.86,7.17-1.12,7.17-.38,7.18,0,7.17-.81,7.17.23,7.18,0,7.16,3.06h7.18l7.17-.5,7.17-2.62L757.08,12l7.17.63,7.17-2.9,7.19,3.42L786,10.48l-2.05,7.41,1.45,7.24L787,32.36l-.53,7.23-.25,7.24,1.91,7.23L786,61.3l2.2,7.23-4,7.23L785,83l1.55,7.23-2.23,7.24-.21,7.23,2.54,7.23-1,7.24-.82,7.23,1.55,7.24-2.19,7.23.31,7.24,1.79,7.23-2.65,7.24,4,7.23-4.24,7.24,1.9,7.23.7,7.24.47,7.23.31,7.24-3.25,7.24.67,7.23-.62,7.23,4.33,7.23-4.56,7.24,3,7.23.3,7.23-3.16,7.24.07,7.23.94,7.24-1.06,7.23,3.16,7.24,1.66,7.23L786,307.27l-1.17,7.24-1,7.23-.07,7.24,2.67,7.24.43,7.24-2.26,7.24,1.62,7.24-2.25,7.24,2.08,7.23-2.06,7.24,1.48,7.24,1.35,7.24L784,401.37l2.67,7.24.48,7.24-3.73,7.46Z" transform="translate(-2.37 -1.34)"/></g><g id="Seal"><path class="cls-5" d="M258.22,377.27c-.76,5.07-.36,15.16,2,19,3.36,5.42,11.91,8.9,18.14,8.9.6,0,3.7-.05,4.3-.15,9.53-1.51,18.32-14.63,18.32-25.23,0-11.26-11.59-17.06-21.79-17.06S259.89,366.13,258.22,377.27Z" transform="translate(-2.37 -1.34)"/><path class="cls-5" d="M392,198.89c-42.55,0-76.21,37-76.21,79.54s40.31,77,82.86,77c2.45,0,4.87-.12,7.26-.34a23.23,23.23,0,0,1,8.66-1.31,77.07,77.07,0,0,0,61.12-75.39C475.68,235.88,434.54,198.89,392,198.89Z" transform="translate(-2.37 -1.34)"/><path class="cls-6" d="M398.64,201.39a77,77,0,1,0,0,154.08c2.45,0,4.87-.12,7.26-.34a23.23,23.23,0,0,1,8.66-1.31,77,77,0,0,0-15.92-152.43Z" transform="translate(-2.37 -1.34)"/><path class="cls-5" d="M451.49,278.43a52.85,52.85,0,0,1-52.85,52.85c-29.19,0-57.84-25.33-57.84-54.51s25.33-56.17,54.51-56.17S451.49,249.24,451.49,278.43Z" transform="translate(-2.37 -1.34)"/><circle class="cls-7" cx="396.27" cy="277.09" r="52.85"/><path class="cls-5" d="M454.92,362a18.21,18.21,0,0,0-10-13.92c-2.52-2.5-3.93-4.67,3.86-11.16-10.89,5-31.57,8.59-43.25,13.67v-.07c0-12.49-12.78-17.62-20.34-17.62-5.38,0-31.5,6.19-26.05,11.74,4.34,4.42,8.52,6.62,9.87,10.86,3.77,11.9,8.62,22.61,16.18,22.61,6.32,0,9.61-11.95,17.72-19.66,6.12-5.81,16.17-4.33,14.78,3.32a19.87,19.87,0,0,0-.1,2.57s0,0,0,.05a.32.32,0,0,0,0,.22,20.26,20.26,0,0,0,.19,2.18c1.45,9.74,14.81,16.56,23.68,15.24S456.38,371.7,454.92,362Z" transform="translate(-2.37 -1.34)"/><path class="cls-6" d="M454.92,362a18.21,18.21,0,0,0-10-13.92c-2.52-2.5-3.93-4.67,3.86-11.16-10.89,5-30.74,6.93-42.42,12,0,0-.83,0-.83-.08,0-12.48-12.78-16.78-20.34-16.78-3.83,0-34.49,6.73-29.22,10.58,3.36,2.45,5.91,2.79,7.48,4.39,4.34,4.41,6.71,4.22,8.05,8.46,3.77,11.9,6.13,22.61,13.69,22.61,6.32,0,11.27-13.61,19.39-21.32,6.12-5.81,19.49-2.67,18.1,5a19.86,19.86,0,0,0-.11,2.57.07.07,0,0,1,0,.05.27.27,0,0,0,0,.22,18,18,0,0,0,.19,2.18c1.45,9.74,9.82,16.56,18.69,15.24S456.38,371.7,454.92,362Z" transform="translate(-2.37 -1.34)"/><path class="cls-5" d="M522.74,333c0,9.67-9.23,15.25-22.44,14.19-8.24-.67-16.63-10.34-16.63-20S493.7,308,502,308,522.74,323.34,522.74,333Z" transform="translate(-2.37 -1.34)"/><path class="cls-6" d="M522.74,333c0,9.67-9.19,14.19-17.45,14.19s-16.63-9.51-16.63-19.18,8.36-15.84,16.63-15.84S522.74,323.34,522.74,333Z" transform="translate(-2.37 -1.34)"/><path class="cls-6" d="M294.85,248.5c0,8.44-8,16.35-17.77,15.29-8.39-.91-17.78-8.51-17.78-17s6.84-16.94,15.28-16.94C285.34,229.9,294.85,240.06,294.85,248.5Z" transform="translate(-2.37 -1.34)"/><path class="cls-5" d="M294.85,248.5c0,8.44-8,16.35-17.77,15.29-8.39-.91-17.78-8.51-17.78-17s6.84-16.94,15.28-16.94C285.34,229.9,294.85,240.06,294.85,248.5Z" transform="translate(-2.37 -1.34)"/><path class="cls-6" d="M294.85,248.5a15.29,15.29,0,0,1-15.28,15.29c-8.44,0-16.94-8.51-16.94-17s7.67-14.45,16.11-14.45S294.85,240.06,294.85,248.5Z" transform="translate(-2.37 -1.34)"/><path class="cls-6" d="M294.85,248.5a15.29,15.29,0,0,1-15.28,15.29c-8.44,0-16.94-8.51-16.94-17s7.67-14.45,16.11-14.45S294.85,240.06,294.85,248.5Z" transform="translate(-2.37 -1.34)"/><path class="cls-6" d="M262.38,384.75c0,11.26,8.27,20.39,18.47,20.39S301,391,301,379.76s-9.93-15.4-20.12-15.4S262.38,373.49,262.38,384.75Z" transform="translate(-2.37 -1.34)"/><path class="cls-8" d="M437,223.7c16.18,15.66,27.73,32,27.73,54.73,0,28-25.24,53.61-50.71,63.53,26.6-7.36,53.2-35.52,53.2-63.53C467.19,255.65,455.2,235.56,437,223.7Z" transform="translate(-2.37 -1.34)"/><path class="cls-8" d="M437.1,328.42c2-1.53,4.06-2,5.89-2.83-7.79,6.49-7.4,28-4.88,30.52-11.43-7.27-20.87-8.56-38.13-11C404,346.35,428,335.39,437.1,328.42Z" transform="translate(-2.37 -1.34)"/><path class="cls-8" d="M441.39,367.45c0,2.83,8.68-1.33,8.68-4.16s-.93-5.13-3.09-5.13S441.39,364.61,441.39,367.45Z" transform="translate(-2.37 -1.34)"/><path class="cls-8" d="M510.54,331.11c0,3.5,2.52,6.34.49,6.34s-8.65-1.18-8.65-4.68,4.13-8,6.16-8S510.54,327.6,510.54,331.11Z" transform="translate(-2.37 -1.34)"/><path class="cls-8" d="M283.54,384.66c0,4.39,5.69,5,6.86,7.12s3.52-4.39,3.52-8.79-.29-6.29-2.69-6.29S283.54,380.26,283.54,384.66Z" transform="translate(-2.37 -1.34)"/><path class="cls-8" d="M282.1,251.32c0,2,.45,4.49,2,4.49s2.87-4.13,2.87-6.16S282.1,249.29,282.1,251.32Z" transform="translate(-2.37 -1.34)"/><path class="cls-8" d="M347.59,279.58c0-27.55,16.87-41.76,27.49-46.89,7.74-3.74,23.13-8,37.65-5.21-9.24-1.3-11.2-3.34-28.25.56-19,4.33-38.67,24.11-38.67,51.67,0,22.4,18.55,44.94,40.38,49.88C361.28,324,347.59,301.82,347.59,279.58Z" transform="translate(-2.37 -1.34)"/><path class="cls-8" d="M387.8,362.31c0,2.65-.53,6.91,1.42,6.91s4.25-4.46,5.65-6.91,2.65-6.2.7-6.2S387.8,359.66,387.8,362.31Z" transform="translate(-2.37 -1.34)"/><path class="cls-8" d="M341.74,313c-8.38-20.91-12.26-45.48-2.95-66.28,11.44-25.56,36.62-36.12,63.92-34.77-27.28-4.15-54.76,8.19-66.2,33.75C327.2,266.51,329.94,294.73,341.74,313Z" transform="translate(-2.37 -1.34)"/></g></svg>