<svg xmlns="http://www.w3.org/2000/svg" viewBox="0 0 794.46 440.89"><defs><style>.cls-1{fill:#b5843e;}.cls-2{fill:#ffeb99;}.cls-3,.cls-4{fill:none;}.cls-3{stroke:#725228;stroke-width:10px;}.cls-3,.cls-4,.cls-7{stroke-miterlimit:10;}.cls-4{stroke:#b5843e;stroke-width:4px;}.cls-5{fill:#a31a1a;}.cls-6,.cls-7{fill:#cc3232;}.cls-7{stroke:#a31a1a;stroke-width:0.5px;}.cls-8{fill:#efefef;}</style></defs><title>envelope</title><g id="Envelope"><polygon class="cls-1" points="793.18 438.72 784.83 438.35 777.66 439.99 770.49 436.8 763.31 437.53 756.14 435.41 748.97 438.98 741.8 436.94 734.63 435.35 727.46 439.13 720.29 438.44 713.12 436.47 705.95 437.19 698.78 436.2 691.62 435.56 684.45 437.14 677.29 435.71 670.12 439.14 662.95 437.86 655.79 436.94 648.62 439.09 641.45 439.97 634.27 436.9 627.1 435.82 619.93 436.28 612.77 439.38 605.6 435.63 598.43 438.5 591.26 439.77 584.1 435.09 576.93 435.18 569.75 439.51 562.58 437.86 555.41 436 548.24 439.33 541.07 437.97 533.9 435.9 526.74 435.94 519.57 437.49 512.4 437.51 505.22 438.69 498.05 438.44 490.88 439.45 483.71 438.79 476.54 438.41 469.37 436.4 462.2 437.66 455.03 439.84 447.86 435.18 440.69 438.18 433.51 435.33 426.35 436.9 419.17 439.81 412 438.85 404.83 436.21 397.66 435.89 390.49 435.71 383.31 438.15 376.14 439.13 368.97 437.15 361.8 439.56 354.63 438.97 347.45 438.4 340.28 438.64 333.11 437.65 325.93 437.78 318.76 437.96 311.59 435.3 304.41 437.63 297.24 436 290.07 435.44 282.89 439.53 275.72 437.44 268.55 438.58 261.37 439.13 254.2 435.76 247.03 436.18 239.85 438.76 232.68 438.8 225.5 438.95 218.33 438.81 211.16 435.46 203.99 438.56 196.82 439.87 189.65 439.29 182.47 437.16 175.3 437.63 168.13 437.33 160.95 439.13 153.78 438.62 146.61 437.23 139.44 439.8 132.26 435.92 125.09 439.48 117.91 439.36 110.74 436.91 103.56 438.88 96.38 436.03 89.21 435.86 82.03 438.14 74.85 435.91 67.67 435.14 60.5 438.38 53.32 439.11 46.15 439.26 38.97 436.63 31.79 437.65 24.62 438.03 17.43 439.19 10.25 438.19 2.87 437.75 3.16 430.31 2.73 423.06 1.56 415.81 1.48 408.56 1.6 401.31 2.63 394.07 4.2 386.82 1.02 379.57 4.33 372.32 2.92 365.07 4.56 357.82 1.4 350.57 2.18 343.32 3.3 336.07 4.64 328.82 3.3 321.57 0.72 314.32 1.78 307.07 1.11 299.82 4.33 292.57 2.13 285.32 2.16 278.07 3.82 270.82 3 263.57 3.15 256.32 1.79 249.07 4.56 241.82 2.16 234.57 1.74 227.32 4.96 220.07 2.11 212.81 1.21 205.57 2.09 198.32 4.86 191.07 2.22 183.82 3.64 176.58 5.44 169.33 4.73 162.08 3.6 154.83 4.29 147.57 1.53 140.32 0.98 133.07 3.48 125.82 2.9 118.57 2.94 111.32 3.87 104.07 3.89 96.81 3.3 89.56 2.29 82.31 3.74 75.05 2.25 67.8 4.84 60.55 4.61 53.29 3.09 46.04 2.26 38.78 5.33 31.53 4.6 24.27 2.73 17.01 3.86 9.75 2.54 1.97 10.23 0.78 17.41 1.68 24.58 2.62 31.75 1.08 38.92 4.57 46.09 2.29 53.26 0.69 60.43 4.78 67.6 3.22 74.77 2.54 81.94 1.76 89.11 2.22 96.28 2.84 103.44 4.86 110.61 0.08 117.78 1.46 124.94 0.25 132.11 3.31 139.28 1.15 146.44 4.89 153.62 1.96 160.79 0.67 167.96 0.87 175.13 0.88 182.3 2.03 189.46 0.15 196.63 3.96 203.8 0.8 210.97 3.75 218.14 4.87 225.31 0.03 232.48 2.87 239.65 2.26 246.82 0.46 253.99 3.49 261.16 2.35 268.33 3.28 275.5 3.76 282.67 0.85 289.84 4.59 297.01 4.93 304.18 3.15 311.35 1.59 318.52 0.18 325.69 2.77 332.86 3.43 340.03 1.03 347.21 4.06 354.38 0.33 361.55 0.71 368.72 1.48 375.89 2.59 383.06 4.81 390.23 0.31 397.41 0.14 404.58 0.51 411.75 0.56 418.92 3.16 426.09 4.89 433.27 1.86 440.44 0.01 447.61 3.55 454.78 1.52 461.96 1.65 469.13 4.35 476.3 3.89 483.48 3.6 490.65 2.46 497.82 4.03 504.99 4.28 512.17 3.46 519.34 2.75 526.51 1.19 533.69 2.41 540.86 0.4 548.03 1.05 555.21 3.96 562.38 1.82 569.56 4.85 576.73 2.69 583.91 0 591.08 3.91 598.25 4.33 605.42 3.47 612.59 4.07 619.76 1.67 626.93 0.12 634.11 1.77 641.28 2.01 648.45 0.7 655.63 0.39 662.8 3.51 669.98 0.95 677.15 0.38 684.33 3.65 691.5 1.51 698.68 3.11 705.86 0.63 713.03 3.53 720.21 3.63 727.39 3.03 734.56 2.4 741.74 3.43 748.92 1.25 756.09 0.56 763.27 2.21 770.45 2.15 777.63 2.48 784.81 4.47 791.14 3.34 790.27 9.74 792.86 16.99 790.46 24.24 792.72 31.49 793.67 38.73 790.14 45.98 791.1 53.23 792.24 60.48 794.47 67.73 789.5 74.98 793.41 82.23 792.09 89.48 792.02 96.73 793.99 103.98 789.94 111.23 793.98 118.47 793.58 125.73 791.89 132.98 792.5 140.23 789.71 147.48 789.55 154.73 792.18 161.98 793.14 169.23 789.84 176.48 790.21 183.73 790.72 190.98 790.57 198.23 789.59 205.48 792.59 212.73 793.14 219.98 792.3 227.23 793.8 234.48 794.03 241.73 792.6 248.97 789.98 256.23 790.82 263.47 791.34 270.72 793.18 277.97 793.24 285.22 791.91 292.47 791.83 299.72 792.26 306.98 789.64 314.23 791.13 321.48 790.25 328.73 792.65 335.98 790.85 343.24 792.42 350.49 793.1 357.74 792.73 365 792.74 372.25 793.55 379.5 793.92 386.76 790.32 394.01 789.59 401.26 794 408.52 791.37 415.78 793.76 423.04 790 430.45 793.18 438.72"/><polygon class="cls-2" points="784.66 430.17 776.32 429.8 769.15 431.44 761.99 428.25 754.82 428.97 747.65 426.86 740.49 430.43 733.32 428.39 726.15 426.8 718.99 430.58 711.83 429.88 704.66 427.91 697.5 428.64 690.34 427.65 683.18 427 676.02 428.58 668.85 427.16 661.69 430.58 654.53 429.31 647.36 428.38 640.19 430.54 633.02 431.42 625.86 428.35 618.7 427.26 611.53 427.73 604.37 430.83 597.21 427.08 590.04 429.95 582.88 431.22 575.71 426.54 568.54 426.63 561.38 430.96 554.21 429.31 547.05 427.45 539.88 430.77 532.72 429.41 525.55 427.35 518.39 427.39 511.22 428.94 504.05 428.95 496.88 430.14 489.72 429.88 482.56 430.9 475.39 430.23 468.22 429.86 461.05 427.84 453.89 429.11 446.72 431.29 439.55 426.63 432.39 429.62 425.22 426.78 418.05 428.35 410.88 431.26 403.72 430.3 396.55 427.65 389.38 427.34 382.21 427.16 375.05 429.6 367.88 430.58 360.71 428.59 353.54 431 346.37 430.41 339.2 429.85 332.04 430.09 324.87 429.1 317.7 429.23 310.53 429.41 303.36 426.74 296.19 429.08 289.02 427.45 281.86 426.89 274.69 430.98 267.52 428.89 260.35 430.03 253.18 430.58 246.01 427.21 238.84 427.63 231.67 430.21 224.5 430.24 217.33 430.39 210.16 430.26 203 426.91 195.83 430 188.66 431.32 181.5 430.74 174.33 428.61 167.16 429.07 159.99 428.77 152.82 430.57 145.65 430.07 138.48 428.67 131.31 431.25 124.14 427.36 116.97 430.92 109.8 430.81 102.62 428.36 95.45 430.32 88.28 427.48 81.11 427.31 73.93 429.58 66.76 427.36 59.59 426.58 52.42 429.82 45.25 430.55 38.07 430.7 30.9 428.08 23.72 429.1 16.54 429.48 8.2 430.15 8.72 421.77 9.08 414.53 9.46 407.3 9.02 400.07 7.86 392.84 7.78 385.6 7.9 378.37 8.93 371.13 10.5 363.9 7.32 356.67 10.63 349.43 9.22 342.2 10.86 334.96 7.7 327.73 8.48 320.49 9.6 313.26 10.94 306.02 9.6 298.79 7.02 291.56 8.08 284.32 7.41 277.08 10.63 269.85 8.43 262.62 8.46 255.38 10.12 248.14 9.29 240.91 9.45 233.67 8.09 226.44 10.86 219.2 8.46 211.97 8.04 204.74 11.26 197.51 8.41 190.27 7.5 183.04 8.38 175.81 11.16 168.57 8.52 161.34 9.93 154.1 11.74 146.86 11.03 139.63 9.9 132.39 10.58 125.16 7.83 117.92 7.28 110.68 9.78 103.44 9.2 96.2 9.24 88.97 10.17 81.73 10.19 74.49 9.6 67.25 8.59 60.01 10.04 52.77 8.55 45.54 11.13 38.3 10.91 31.05 9.39 23.81 8.56 16.57 10.98 10.92 16.53 10.86 23.7 8.99 30.86 10.12 38.03 8.58 45.19 7.61 52.36 8.51 59.53 9.45 66.69 7.91 73.86 11.4 81.02 9.12 88.19 7.52 95.35 11.61 102.51 10.05 109.67 9.37 116.83 8.59 124 9.05 131.16 9.67 138.32 11.69 145.49 6.91 152.66 8.29 159.82 7.08 166.99 10.14 174.15 7.98 181.32 11.72 188.48 8.79 195.64 7.5 202.81 7.7 209.97 7.71 217.14 8.86 224.31 6.98 231.47 10.79 238.64 7.63 245.8 10.57 252.97 11.7 260.13 6.86 267.3 9.7 274.46 9.09 281.63 7.29 288.8 10.32 295.96 9.18 303.13 10.11 310.29 10.59 317.46 7.68 324.63 11.42 331.8 11.76 338.96 9.98 346.13 8.42 353.3 7.01 360.46 9.6 367.63 10.26 374.8 7.86 381.97 10.89 389.13 7.16 396.3 7.54 403.47 8.31 410.63 9.42 417.8 11.64 424.97 7.14 432.14 6.97 439.31 7.34 446.48 7.39 453.64 9.99 460.81 11.72 467.98 8.7 475.15 6.84 482.32 10.38 489.49 8.35 496.66 8.48 503.83 11.18 510.99 10.72 518.16 10.43 525.33 9.29 532.5 10.86 539.67 11.11 546.84 10.29 554.01 9.59 561.18 8.02 568.35 9.24 575.52 7.23 582.69 7.88 589.85 10.79 597.02 8.65 604.19 11.68 611.35 9.52 618.52 6.83 625.69 10.73 632.86 11.16 640.03 10.3 647.2 10.9 654.37 8.49 661.54 6.95 668.71 8.6 675.88 8.84 683.05 7.53 690.23 7.22 697.4 10.34 704.57 7.78 711.74 7.21 718.92 10.48 726.09 8.34 733.26 9.94 740.43 7.46 747.6 10.36 754.78 10.46 761.95 9.86 769.13 9.23 776.31 10.26 784.37 8.45 785.42 16.56 783.77 23.79 783.83 31.02 783.5 38.26 781.51 45.49 782.28 52.72 781.75 59.96 784.35 67.19 781.95 74.42 784.2 81.66 785.16 88.89 781.63 96.13 782.59 103.36 783.73 110.6 785.95 117.83 780.99 125.07 784.9 132.3 783.57 139.53 783.51 146.77 785.48 154 781.43 161.24 785.47 168.48 785.07 175.71 783.38 182.95 783.99 190.18 781.2 197.42 781.04 204.65 783.67 211.89 784.63 219.13 781.33 226.36 781.7 233.59 782.21 240.82 782.06 248.06 781.07 255.29 784.08 262.52 784.63 269.76 783.79 276.99 785.29 284.23 785.52 291.46 784.09 298.7 781.47 305.93 782.3 313.17 782.83 320.41 784.67 327.64 784.73 334.88 783.4 342.12 783.31 349.36 783.75 356.6 781.13 363.84 782.62 371.07 781.74 378.31 784.14 385.55 782.34 392.79 783.91 400.03 784.59 407.27 784.22 414.51 784.23 421.7 784.66 430.17"/><path class="cls-1" d="M9,13V432.7H783.15c-444.09,0-712.89,19.49-744.95-46.11C2,312.38,9.91,210.27,9,13Z" transform="translate(-2.3 -1.34)"/><path class="cls-1" d="M6.3,6.13l-.14,5.8L2.37,19.18l0,7.25,1.68,7.25-.41,7.25L5,48.17,7.1,55.42,4.76,62.67l0,7.25,2.61,7.25L4.43,84.42l-.64,7.25.6,7.25,2.2,7.25-3.08,7.25.84,7.25,1.4,7.25-.45,7.25-1.64,7.25-.05,7.25-.72,7.25.46,7.25.44,7.25L6,178.67l-.1,7.25.73,7.25-1.44,7.25-2.07,7.25L4,214.92l-1.19,7.25,2.13,7.25,1.4,7.25-2.12,7.25,1.92,7.25-2.38,7.25,2.47,7.24-3.36,7.25-.2,7.25,4,7.25-1.15,7.25.93,7.25.8,7.26-2.78,7.25-.7,7.25.15,7.25-.64,7.25.89,7.26,1.59,7.25-2.59,7.25-.59,7.26,4.78,7.25-.06,7.25L2.45,389l3.09,7.25-1.82,7.26,1.12,7.25L5.4,418l-.94,7.26-.07,7.26-.9,8.6L12,439.85l7.17.11,7.17-2,7.17,1,7.18,1.85L47.88,438l7.17,1.5,7.17-1.17,7.17.27,7.17,1.89,7.17-2,7.17-.07,7.17.47,7.16-.16,7.17,1,7.16,2.41,7.17-4.13,7.17.75,7.16-1.51,7.17,2.39,7.17-.28,7.18.12,7.17-1.58,7.17-.56,7.16,1,7.17.88,7.17-.45,7.16,3.25,7.17-4.31,7.17.41,7.17.39,7.18,2.33,7.17-3.09,7.17,3.46,7.17-.32,7.16.14,7.17-3.47,7.17,1.71,7.17,1.46,7.18-.58,7.17,1.88L306,437.6l7.17,2.85,7.17.37,7.17.36,7.17-1.3,7.17-2.46,7.17,3.14,7.17.23,7.17,1.34,7.17-1.6,7.17.42,7.18.63L392,438.9l7.17,1.94,7.17.72,7.17-1,7.18,1.06,7.17-1.76,7.17-2.15,7.17,4,7.18-.11,7.17-1.12,7.17-2.58,7.17,2.13,7.18-2.75,7.17,1.64,7.17.77,7.18.86,7.17-2.38,7.17-.5,7.18,2.18,7.17,2.05,7.17-1.42,7.18-2.49,7.17-.22,7.18,3,7.17.75,7.17.4,7.18-4.1,7.17,3.81,7.17-3.76L600,442l7.17-2.52,7.18-.9,7.17,1.11,7.17-.4,7.17,2.08,7.18-3.2,7.17,2.71,7.17-3.58,7.18.31,7.17,2.76,7.18-2.81,7.17.12,7.18,0,7.18,3.82,7.17-1.88,7.18.75,7.18-1.86,7.18,2.69,7.17-3.32,7.18,1,7.17.59,7.18,2.73,7.18-1,7.17-2.85,7.18,1.11,7.19.69,8.7,1-3.67-8.75,4.35-7.25L791.6,418l-.1-7.25,4.11-7.25-.86-7.24-3-7.25,1-7.25,3.31-7.25-2.69-7.25.41-7.25,1.68-7.25-4.18-7.25,3.89-7.25L793.55,331l.74-7.25,1.85-7.25-.87-7.25,0-7.25-1.66-7.25,2-7.25-1.85-7.25-2-7.25,1.25-7.25-.55-7.25,3.76-7.25-1-7.25.63-7.25,0-7.25-2.11-7.25-1-7.25,2.64-7.25-2.2-7.25,2.73-7.25L793.77,186l2.41-7.24-.12-7.25-3.36-7.25-.57-7.25,2.24-7.25-1.84-7.25.84-7.26-1-7.25-.54-7.25,1.27-7.25,2.44-7.25L795.8,99l-.37-7.25-.1-7.25-.73-7.26-3-7.25.82-7.25,3.47-7.26-2.67-7.25L794,41l-.71-7.25,1.49-7.26,1.4-7.25-.77-7.27-2.15-6.73L786.62,2.9l-7.18.67-7.17,3.5-7.17-.61-7.17-4-7.17,4.05-7.17-.58-7.17.52-7.17-1.12-7.17-1.8L714.91,4l-7.17-.52-7.17,2.67L693.4,3.47l-7.16.15-7.17,1.84-7.16-.72-7.17-.46L657.57,3,650.4,4.45l-7.17,1.76-7.17-.67-7.17,1-7.17-4.06-7.17,3.58-7.17-2.85-7.16,1.63-7.17.6L585.88,3.6l-7.17,1.12-7.17.38-7.17,0-7.17.81L550,5.7l-7.17,0-7.17-3.05h-7.17l-7.17.5-7.17,2.62L507,3.37l-7.17-.63-7.17,2.9L485.5,2.22l-7.17,2.72-7.17-2.12L464,4.27l-7.17,1.61-7.18-.53-7.17-.25L435.3,7l-7.17-2.16L421,7.05l-7.17-4-7.18.85-7.17,1.54-7.17-2.22L385.1,3l-7.17,2.55-7.18-1-7.17-.82-7.17,1.55-7.17-2.19-7.17.31-7.18,1.78-7.17-2.64-7.17,4-7.18-4.24L306.2,4.17l-7.17.7-7.17.48-7.18.3-7.17-3.24-7.17.66-7.18-.62L256,6.78l-7.18-4.56-7.17,3-7.17.29-7.18-3.16-7.17.08-7.18.94-7.17-1.06L198.6,5.48l-7.17,1.66-7.17-2.29-7.17-1.16-7.17-1-7.18-.07-7.17,2.67-7.18.43-7.17-2.26-7.17,1.61-7.18-2.24L119.7,4.9l-7.18-2.06-7.17,1.47L98.17,5.67,91,2.9,83.82,5.57l-7.18.48L69.46,2.31l-7.17,2.2L55.11,2.35l-7.18.52L40.76,6.6,33.58,5.52,26.4,6.77l-7.18,0L11.76,2.26ZM787.24,431.78l-8.62-.13-7.17-3.79-7.16,0-7.17,1.68-7.17-.41-7.16,1.33-7.17,2.09-7.17-2.34-7.16,0-7.17,2.62L707,429.92l-7.16-.64-7.16.6-7.16,2.2L678.31,429l-7.16.85L664,431.24l-7.17-.45-7.16-1.64-7.17,0-7.17-.73-7.16.46-7.17.44-7.16,2.24-7.16-.1-7.16.72-7.17-1.44-7.16-2.07-7.17.83-7.17-1.19-7.17,2.13-7.16,1.4-7.16-2.12-7.17,1.92L535,429.22l-7.17,2.47-7.16-3.36-7.17-.2-7.17,4L499.18,431l-7.16.93-7.17.8-7.16-2.78-7.17-.7-7.17.15-7.17-.64-7.16.89-7.17,1.59-7.16-2.59-7.17-.59-7.17,4.78-7.17-.06L406,427.94,398.85,431l-7.17-1.82-7.17,1.12-7.17.56-7.16-.94-7.17-.07-7.17-1.45-7.17,1.81-7.17-.11-7.16,2-7.17-1L320,429.31l-7.17,2.77-7.17-1.51-7.17,1.18-7.17-.27-7.17-1.89-7.16,2-7.17.07-7.17-.47-7.17.15-7.17-1-7.17-2.41L234,432l-7.17-.76-7.17,1.52-7.17-2.39-7.16.28-7.17-.12L191,432.14l-7.17.56-7.16-1-7.17-.88-7.17.44L155.12,428,148,432.35l-7.17-.41-7.17-.4-7.17-2.33-7.17,3.1-7.17-3.46-7.18.32L97.75,429l-7.17,3.47-7.17-1.71-7.18-1.46-7.17.58L61.89,428l-7.17,4.45-7.18-2.84-7.17-.38-7.17-.36L26,430.21l-7.18,2.45-6.6-2.89.46-6.66,1.35-7.24-1.61-7.23.42-7.23.63-7.24-2.68-7.23,1.95-7.24.72-7.23-1-7.23L13.55,358l-1.77-7.23-2.15-7.24,4-7.23-.12-7.23-1.12-7.24L9.84,314.6,12,307.36l-2.75-7.23,1.64-7.24.77-7.23.86-7.24-2.38-7.23L9.61,264l2.19-7.23,2-7.24-1.42-7.23L9.93,235l-.21-7.24,3-7.23.76-7.23.39-7.23-4.1-7.24,3.81-7.23-3.76-7.23,4.13-7.24-2.53-7.23-.9-7.24,1.12-7.23-.41-7.24L13.28,141l-3.2-7.24,2.71-7.24-3.58-7.23L9.53,112l2.76-7.24L9.47,97.54,9.6,90.3l0-7.24,3.81-7.24-1.88-7.23.75-7.24-1.86-7.24,2.69-7.24L9.82,39.63l1-7.24.59-7.24,2.73-7.24-1.39-6.17,6.08-2.4L26,10.45l7.17.69,7.17,1.65,7.16-4.28,7.17,4.35,7.16-4.39L69,8.38l7.17,4.1,7.16-.86,7.17-3,7.16,1L104.81,13,112,10.31l7.16.41,7.16,1.67,7.17-4.17,7.16,3.88,7.17-1.68,7.17.75L162.12,13l7.17-.88,7.16,0,7.16-1.65,7.17,2,7.16-1.84,7.16-2,7.17,1.25,7.17-.55,7.17,3.75,7.16-.95,7.17.64,7.16,0,7.17-2.1,7.16-1,7.16,2.64,7.17-2.2,7.17,2.74,7.17-2.21,7.16,2.41,7.17-.12,7.16-3.37L319.76,9l7.17,2.24,7.16-1.85,7.17.84,7.17-1,7.16-.55L362.76,10l7.17,2.43,7.17.27,7.16-.36,7.17-.11,7.17-.73,7.16-3,7.17.81,7.17,3.47,7.17-2.66,7.17.79,7.16-.71,7.17,1.49,7.17,1.4,7.17-.77,7.17-2.36,7.17,2.53,7.17-.67,7.17-3.5,7.16.61,7.17,4,7.17-4,7.17.58,7.17-.52,7.17,1.13L542,11.86l7.17-.52,7.17.51,7.17-2.67,7.17,2.69,7.17-.14L585,9.88l7.16.73,7.17.46,7.17,1.28,7.16-1.45,7.17-1.77L628,9.8l7.17-1,7.17,4.06,7.17-3.58,7.17,2.85,7.17-1.63L671,9.88l7.17,1.86,7.17-1.12,7.17-.38,7.18,0,7.17-.81,7.17.23,7.18,0,7.16,3.06h7.18l7.17-.5,7.17-2.62L757.08,12l7.17.63,7.17-2.9,7.19,3.42L786,10.48l-2.05,7.41,1.45,7.24L787,32.36l-.53,7.23-.25,7.24,1.91,7.23L786,61.3l2.2,7.23-4,7.23L785,83l1.55,7.23-2.23,7.24-.21,7.23,2.54,7.23-1,7.24-.82,7.23,1.55,7.24-2.19,7.23.31,7.24,1.79,7.23-2.65,7.24,4,7.23-4.24,7.24,1.9,7.23.7,7.24.47,7.23.31,7.24-3.25,7.24.67,7.23-.62,7.23,4.33,7.23-4.56,7.24,3,7.23.3,7.23-3.16,7.24.07,7.23.94,7.24-1.06,7.23,3.16,7.24,1.66,7.23L786,307.27l-1.17,7.24-1,7.23-.07,7.24,2.67,7.24.43,7.24-2.26,7.24,1.62,7.24-2.25,7.24,2.08,7.23-2.06,7.24,1.48,7.24,1.35,7.24L784,401.37l2.67,7.24.48,7.24-3.73,7.46Z" transform="translate(-2.3 -1.34)"/><polyline class="cls-3" points="0.25 279.93 7.46 279.56 14.66 283.16 21.86 283.88 29.06 279.48 36.26 282.11 43.46 279.72 50.66 283.48 57.86 282.31 65.06 279.79 72.27 282.74 79.47 283.85 86.67 281.38 93.86 282.41 101.06 280.16 108.25 279.87 115.45 283.4 122.65 283.6 129.84 283.6 137.04 279.96 144.24 280.11 151.44 283.43 158.64 281.25 165.84 281.68 173.04 283.11 180.24 283.88 187.44 279.7 194.64 279.86 201.83 280.13 209.03 280.76 216.23 281.57 223.43 279.49 230.64 283.14 237.84 283.27 245.04 283.09 252.24 283.4 259.43 281.38 266.63 279.64 273.83 283.25 281.03 281.86 288.24 279.74 295.44 280.08 302.64 279 309.84 279.07 317.04 280.39 324.24 280.58 331.44 282.91 338.64 283.93 345.85 283.28 353.05 283.6 360.25 282.75 367.45 279.73 374.65 283.3 381.85 279.35 389.06 279.56 396.26 280.38 403.46 279.71 410.66 283.71 417.86 283.54 425.06 282.74 432.27 280.77 439.47 281.31 446.67 279.36 453.88 282.7 461.08 283.93 468.28 279.99 475.48 280.19 482.69 279.49 489.89 279.77 497.09 280.15 504.3 282.21 511.5 280.95 518.7 279.95 525.91 280.11 533.11 283.65 540.32 279.27 547.52 282.23 554.72 281.03 561.93 280.29 569.13 279.8 576.34 283.04 583.54 282.62 590.74 281.45 597.94 282.56 605.14 280.54 612.35 283 619.55 283.37 626.75 279 633.95 283.65 641.16 279.1 648.36 279 655.56 283.64 662.77 280 669.97 280.89 677.18 281.11 684.38 283.16 691.59 283.28 698.8 280.76 706 282.79 713.21 282.59 720.42 283.04 727.63 281.55 734.83 282.17 742.04 281.02 749.25 282.18 756.45 279.3 763.66 280.45 770.87 281.73 778.08 280.41 785.29 279.43 792.51 280.16"/><polyline class="cls-4" points="0.25 276.77 7.46 276.4 14.66 280 21.86 280.72 29.06 276.32 36.26 278.95 43.46 276.56 50.66 280.32 57.86 279.15 65.06 276.63 72.27 279.58 79.47 280.69 86.67 278.23 93.86 279.25 101.06 277 108.25 276.72 115.45 280.25 122.65 280.44 129.84 280.44 137.04 276.81 144.24 276.95 151.44 280.27 158.64 278.09 165.84 278.53 173.04 279.95 180.24 280.72 187.44 276.54 194.64 276.7 201.83 276.97 209.03 277.6 216.23 278.42 223.43 276.33 230.64 279.98 237.84 280.11 245.04 279.93 252.24 280.24 259.43 278.23 266.63 276.48 273.83 280.1 281.03 278.7 288.24 276.58 295.44 276.93 302.64 275.84 309.84 275.92 317.04 277.23 324.24 277.42 331.44 279.75 338.64 280.78 345.85 280.12 353.05 280.44 360.25 279.59 367.45 276.58 374.65 280.14 381.85 276.19 389.06 276.4 396.26 277.22 403.46 276.56 410.66 280.55 417.86 280.38 425.06 279.59 432.27 277.61 439.47 278.15 446.67 276.2 453.88 279.54 461.08 280.77 468.28 276.83 475.48 277.04 482.69 276.33 489.89 276.61 497.09 277 504.3 279.06 511.5 277.79 518.7 276.79 525.91 276.95 533.11 280.5 540.32 276.12 547.52 279.07 554.72 277.88 561.93 277.13 569.13 276.65 576.34 279.88 583.54 279.46 590.74 278.29 597.94 279.41 605.14 277.39 612.35 279.84 619.55 280.21 626.75 275.84 633.95 280.5 641.16 275.94 648.36 275.84 655.56 280.48 662.77 276.84 669.97 277.73 677.18 277.95 684.38 280 691.59 280.13 698.8 277.61 706 279.64 713.21 279.43 720.42 279.88 727.63 278.39 734.83 279.01 742.04 277.86 749.25 279.02 756.45 276.15 763.66 277.29 770.87 278.57 778.08 277.26 785.29 276.27 792.51 277.01"/></g><g id="Seal"><path class="cls-5" d="M257.28,383.27c-.76,5.07-.36,15.17,2,19,3.35,5.43,11.91,8.9,18.14,8.9.6,0,3.69-.05,4.29-.14,9.54-1.51,18.33-14.64,18.33-25.23,0-11.26-11.59-17.06-21.79-17.06S259,372.14,257.28,383.27Z" transform="translate(-2.3 -1.34)"/><path class="cls-5" d="M391.05,204.9c-42.55,0-76.22,37-76.22,79.53s40.32,77.05,82.87,77.05q3.68,0,7.26-.35a23,23,0,0,1,8.66-1.3,77.08,77.08,0,0,0,61.12-75.4C474.74,241.89,433.59,204.9,391.05,204.9Z" transform="translate(-2.3 -1.34)"/><path class="cls-6" d="M397.7,207.39a77,77,0,1,0,0,154.09q3.68,0,7.26-.35a23,23,0,0,1,8.66-1.3A77.05,77.05,0,0,0,397.7,207.39Z" transform="translate(-2.3 -1.34)"/><path class="cls-5" d="M450.54,284.43a52.85,52.85,0,0,1-52.84,52.85c-29.19,0-57.84-25.32-57.84-54.51s25.32-56.17,54.51-56.17S450.54,255.25,450.54,284.43Z" transform="translate(-2.3 -1.34)"/><circle class="cls-7" cx="395.4" cy="283.1" r="52.85"/><path class="cls-5" d="M454,368a18.26,18.26,0,0,0-10-13.92c-2.52-2.5-3.92-4.67,3.87-11.16-10.9,5-31.57,8.59-43.25,13.68v-.08c0-12.48-12.78-17.62-20.34-17.62-5.38,0-31.51,6.2-26.05,11.75,4.34,4.41,8.52,6.61,9.87,10.86,3.76,11.9,8.62,22.6,16.18,22.6,6.32,0,9.6-11.95,17.72-19.66,6.12-5.81,16.17-4.32,14.78,3.32a19.86,19.86,0,0,0-.11,2.57.13.13,0,0,1,0,.06.27.27,0,0,0,0,.22,18.17,18.17,0,0,0,.19,2.18c1.45,9.74,14.81,16.56,23.68,15.23S455.44,377.71,454,368Z" transform="translate(-2.3 -1.34)"/><path class="cls-6" d="M454,368a18.26,18.26,0,0,0-10-13.92c-2.52-2.5-3.92-4.67,3.87-11.16-10.9,5-30.74,6.93-42.42,12,0,0-.83-.06-.83-.08,0-12.49-12.78-16.79-20.34-16.79-3.83,0-34.49,6.73-29.22,10.58,3.36,2.46,5.9,2.79,7.48,4.39,4.34,4.42,6.71,4.22,8.05,8.47,3.77,11.9,6.13,22.6,13.69,22.6,6.32,0,11.27-13.61,19.38-21.32,6.12-5.81,19.49-2.66,18.11,5a18.22,18.22,0,0,0-.11,2.57s0,0,0,.06a.27.27,0,0,0,0,.22c0,.72.09,1.44.19,2.18,1.46,9.74,9.83,16.56,18.7,15.23S455.44,377.71,454,368Z" transform="translate(-2.3 -1.34)"/><path class="cls-5" d="M521.8,339c0,9.67-9.23,15.24-22.44,14.18-8.24-.66-16.63-10.33-16.63-20S492.76,314,501,314,521.8,329.35,521.8,339Z" transform="translate(-2.3 -1.34)"/><path class="cls-6" d="M521.8,339c0,9.67-9.19,14.18-17.45,14.18s-16.63-9.5-16.63-19.17,8.36-15.85,16.63-15.85S521.8,329.35,521.8,339Z" transform="translate(-2.3 -1.34)"/><path class="cls-6" d="M293.91,254.51c0,8.44-8,16.34-17.77,15.28-8.4-.91-17.78-8.5-17.78-16.94s6.84-16.95,15.28-16.95C284.4,235.9,293.91,246.07,293.91,254.51Z" transform="translate(-2.3 -1.34)"/><path class="cls-5" d="M293.91,254.51c0,8.44-8,16.34-17.77,15.28-8.4-.91-17.78-8.5-17.78-16.94s6.84-16.95,15.28-16.95C284.4,235.9,293.91,246.07,293.91,254.51Z" transform="translate(-2.3 -1.34)"/><path class="cls-6" d="M293.91,254.51a15.28,15.28,0,0,1-15.28,15.28c-8.44,0-16.94-8.5-16.94-16.94s7.67-14.45,16.11-14.45S293.91,246.07,293.91,254.51Z" transform="translate(-2.3 -1.34)"/><path class="cls-6" d="M293.91,254.51a15.28,15.28,0,0,1-15.28,15.28c-8.44,0-16.94-8.5-16.94-16.94s7.67-14.45,16.11-14.45S293.91,246.07,293.91,254.51Z" transform="translate(-2.3 -1.34)"/><path class="cls-6" d="M261.44,390.76c0,11.25,8.26,20.38,18.46,20.38S300,397,300,385.77s-9.93-15.4-20.13-15.4S261.44,379.5,261.44,390.76Z" transform="translate(-2.3 -1.34)"/><path class="cls-8" d="M436,229.7c16.19,15.66,27.73,31.95,27.73,54.73,0,28-25.23,53.61-50.7,63.54,26.6-7.36,53.2-35.53,53.2-63.54C466.25,261.65,454.26,241.56,436,229.7Z" transform="translate(-2.3 -1.34)"/><path class="cls-8" d="M436.16,334.42c2-1.52,4-2,5.88-2.82-7.78,6.49-7.39,28-4.87,30.51-11.43-7.26-20.87-8.56-38.13-11C403.07,352.35,427.05,341.39,436.16,334.42Z" transform="translate(-2.3 -1.34)"/><path class="cls-8" d="M440.44,373.45c0,2.83,8.69-1.32,8.69-4.15s-.93-5.13-3.1-5.13S440.44,370.62,440.44,373.45Z" transform="translate(-2.3 -1.34)"/><path class="cls-8" d="M509.6,337.11c0,3.5,2.51,6.34.49,6.34s-8.65-1.17-8.65-4.68,4.13-8,6.16-8S509.6,333.61,509.6,337.11Z" transform="translate(-2.3 -1.34)"/><path class="cls-8" d="M282.6,390.66c0,4.4,5.69,5,6.85,7.13S293,393.39,293,389s-.29-6.3-2.7-6.3S282.6,386.26,282.6,390.66Z" transform="translate(-2.3 -1.34)"/><path class="cls-8" d="M281.16,257.32c0,2,.45,4.49,2,4.49s2.87-4.13,2.87-6.15S281.16,255.3,281.16,257.32Z" transform="translate(-2.3 -1.34)"/><path class="cls-8" d="M346.64,285.59c0-27.56,16.88-41.76,27.5-46.89,7.74-3.74,23.13-8,37.64-5.21-9.23-1.31-11.19-3.35-28.24.55-19,4.34-38.68,24.12-38.68,51.67,0,22.41,18.56,45,40.39,49.89C360.34,330,346.64,307.83,346.64,285.59Z" transform="translate(-2.3 -1.34)"/><path class="cls-8" d="M386.86,368.31c0,2.65-.53,6.91,1.42,6.91s4.25-4.46,5.65-6.91c1.31-2.29,2.65-6.2.69-6.2S386.86,365.67,386.86,368.31Z" transform="translate(-2.3 -1.34)"/><path class="cls-8" d="M340.8,319c-8.38-20.9-12.26-45.48-2.95-66.27,11.44-25.56,36.62-36.13,63.92-34.78-27.28-4.15-54.76,8.2-66.2,33.76C326.26,272.51,329,300.74,340.8,319Z" transform="translate(-2.3 -1.34)"/></g></svg>