<svg xmlns="http://www.w3.org/2000/svg" viewBox="0 0 898.33 1040.7"><defs><style>.cls-1{fill:#231f20;}.cls-2{fill:#6d6e71;}.cls-3{fill:#4a4b4c;}.cls-4{fill:#3d3d3d;}.cls-5{fill:#9b7957;}.cls-6{fill:#c49a6c;}.cls-7{fill:none;stroke:#ed1c24;stroke-miterlimit:10;stroke-width:5px;}.cls-8{fill:#c6be8f;}.cls-9{fill:#877f57;}.cls-10{fill:#7a6547;}.cls-11{fill:#ad8c68;}.cls-12{fill:#754c29;}.cls-13{fill:#8e5a33;}.cls-14{fill:#442b19;}.cls-15{fill:#472d1a;}</style></defs><title>well1</title><g id="Well"><ellipse class="cls-1" cx="446.04" cy="672.48" rx="220.42" ry="33.13"/><path class="cls-2" d="M488.14,796.85c-157.51,0-285.19-25.1-285.19-56.06V1053c0,31,127.68,56.06,285.19,56.06s285.2-25.1,285.2-56.06V740.79C773.34,771.75,645.65,796.85,488.14,796.85Z" transform="translate(-42.11 -68.31)"/><path class="cls-3" d="M488.14,860.51c-162.25-8.6-222.63-11.42-285.19-31.69V1052c0,2.88,15.12,22.45,13.37,12.37-12.94-74.61,417.45-181.79,557-235.5C773.34,828.82,646.7,868.91,488.14,860.51Z" transform="translate(-42.11 -68.31)"/><path class="cls-2" d="M488.14,684.73c-173.24,0-313.68,25.09-313.68,56.06s140.44,56.06,313.68,56.06,313.68-25.1,313.68-56.06S661.38,684.73,488.14,684.73Zm0,89.18c-121.73,0-220.42-14.83-220.42-33.12s98.69-33.13,220.42-33.13,220.43,14.83,220.43,33.13S609.88,773.91,488.14,773.91Z" transform="translate(-42.11 -68.31)"/><path class="cls-3" d="M322.93,762.72c-34.36-5.84-55.21-13.52-55.21-21.93,0-18.3,98.69-33.13,220.42-33.13,74,0,139.49,5.48,179.47,13.89,5.84,1.23-.54-15.68,83.81-11.25-63.48-15.81-153.87-25.57-263.28-25.57-173.24,0-313.68,25.09-313.68,56.06,0,16.7,40.89,31.7,105.76,42-3-1.85-4.44-3.65-4.37-5.38Q276.18,769.12,322.93,762.72Z" transform="translate(-42.11 -68.31)"/></g><g id="Layer_3" data-name="Layer 3"><path class="cls-2" d="M488.14,797.35c-173.24,0-313.68-25.1-313.68-56.06v64.16c0,31,140.44,56.06,313.68,56.06s313.68-25.1,313.68-56.06V741.29C801.82,772.25,661.38,797.35,488.14,797.35Z" transform="translate(-42.11 -68.31)"/><path class="cls-3" d="M400.66,795.14c.78-.17-1.59-.08-2.39-.13-129.44-6.9-223.81-28.34-223.81-53.72v64.16c0,24.83,90.3,45.88,215.4,53.25a13.29,13.29,0,0,0,1.68.1C348.49,852.66,339,808.23,400.66,795.14Z" transform="translate(-42.11 -68.31)"/></g><g id="Supports"><path class="cls-4" d="M208.69,737.69l31.43.26v-7.5l-22.7-18c-14,4.27-24.95,8.9-32.28,13.79Z" transform="translate(-42.11 -68.31)"/><path class="cls-3" d="M736.17,739.44l31.43.26v-7.5l-32.9-26.07c-26.4-6-59.5-11-97.28-14.66Z" transform="translate(-42.11 -68.31)"/><path class="cls-4" d="M734.14,705.94c-26.8-6.12-60-11.1-97.71-14.69l46.5,22.59q10.16-6.86,55.66-4.37Z" transform="translate(-42.11 -68.31)"/><rect class="cls-5" x="166.58" y="341.37" width="31.43" height="328.57"/><rect class="cls-6" x="694.06" y="342.82" width="31.43" height="328.57"/><path class="cls-5" d="M736.17,436.77v162A652,652,0,0,1,755,479.13c3.86-15.21,8.13-29.66,12.64-43.32C762.45,436,757.3,436.15,736.17,436.77Z" transform="translate(-42.11 -68.31)"/><path class="cls-5" d="M736.17,436.77v162a653.55,653.55,0,0,1,7.66-66.68c4.86-32.67,11.92-64.21,23.77-96.3C762.45,436,757.3,436.15,736.17,436.77Z" transform="translate(-42.11 -68.31)"/></g><g id="Rope"><path class="cls-7" d="M623.91,438.91" transform="translate(-42.11 -68.31)"/><path class="cls-7" d="M751.42,741.29" transform="translate(-42.11 -68.31)"/><polygon class="cls-8" points="716.23 672.98 699.38 672.98 574.38 370.6 591.23 370.6 716.23 672.98"/><path class="cls-8" d="M481.64,773.9h6.5q5.21,0,10.35,0V440.07H481.64Z" transform="translate(-42.11 -68.31)"/><path class="cls-9" d="M730.09,673l-96.75-234H616.49l110.36,267Q728.67,689,730.09,673Z" transform="translate(-42.11 -68.31)"/><path class="cls-9" d="M481.64,735.22c6.85-8.09,9.15-10.73,16.85-14.45V440.07H481.64Z" transform="translate(-42.11 -68.31)"/><polygon class="cls-10" points="439.53 670.85 456.38 651.08 456.38 645.38 439.53 665.15 439.53 670.85"/><polygon class="cls-10" points="439.53 390.85 456.38 371.08 456.38 365.38 439.53 385.15 439.53 390.85"/><polygon class="cls-10" points="439.53 430.85 456.38 411.08 456.38 405.38 439.53 425.15 439.53 430.85"/><polygon class="cls-10" points="439.53 470.85 456.38 451.08 456.38 445.38 439.53 465.15 439.53 470.85"/><polygon class="cls-10" points="439.53 510.85 456.38 491.08 456.38 485.38 439.53 505.15 439.53 510.85"/><polygon class="cls-10" points="439.53 550.85 456.38 531.08 456.38 525.38 439.53 545.15 439.53 550.85"/><polygon class="cls-10" points="439.53 590.85 456.38 571.08 456.38 565.38 439.53 585.15 439.53 590.85"/><polygon class="cls-10" points="439.53 630.85 456.38 611.08 456.38 605.38 439.53 625.15 439.53 630.85"/><polygon class="cls-11" points="444 705.61 456.38 691.08 456.38 685.38 439.53 705.15 439.53 705.59 444 705.61"/><line class="cls-10" x1="439.53" y1="670.85" x2="456.38" y2="651.08"/><path class="cls-11" d="M481.64,735.22v3.94l14.77-17.34C490.31,725.05,487.83,727.91,481.64,735.22Z" transform="translate(-42.11 -68.31)"/><polygon class="cls-11" points="693.49 658.69 699.95 634.62 697.77 629.35 691.31 653.42 693.49 658.69"/><polygon class="cls-10" points="586.49 399.94 592.95 375.87 590.77 370.6 584.31 394.67 586.49 399.94"/><polygon class="cls-10" points="601.77 436.9 608.24 412.84 606.06 407.57 599.59 431.63 601.77 436.9"/><polygon class="cls-10" points="617.06 473.87 623.52 449.8 621.34 444.53 614.88 468.6 617.06 473.87"/><polygon class="cls-10" points="632.35 510.83 638.81 486.76 636.63 481.5 630.17 505.56 632.35 510.83"/><polygon class="cls-10" points="647.63 547.79 654.09 523.73 651.91 518.46 645.45 542.53 647.63 547.79"/><polygon class="cls-10" points="662.92 584.76 669.38 560.69 667.2 555.42 660.74 579.49 662.92 584.76"/><polygon class="cls-10" points="678.21 621.72 684.67 597.65 682.49 592.39 676.03 616.45 678.21 621.72"/><line class="cls-10" x1="693.49" y1="658.69" x2="699.95" y2="634.62"/><polygon class="cls-11" points="714.87 672.98 715.24 671.58 713.06 666.31 711.27 672.98 714.87 672.98"/></g><g id="Top"><path class="cls-12" d="M491.27,69.42,42.11,420.58c0,10.67,201.09,19.31,449.16,19.31s449.17-8.64,449.17-19.31Z" transform="translate(-42.11 -68.31)"/><polygon class="cls-13" points="450.66 1.05 457.89 204.01 447.67 1.18 450.66 1.05"/><polygon class="cls-13" points="450.4 1.97 278.81 245.38 447.94 0.26 450.4 1.97"/><polygon class="cls-13" points="450.44 0.32 643.4 314.31 447.89 1.9 450.44 0.32"/><polygon class="cls-13" points="450.22 2.18 160.84 285.2 448.11 0.04 450.22 2.18"/><polygon class="cls-13" points="450.59 1.6 358.71 266.82 447.75 0.63 450.59 1.6"/><polygon class="cls-13" points="450.23 0.05 765.96 318.91 448.1 2.17 450.23 0.05"/><polygon class="cls-14" points="450.29 0.12 709.78 295.93 448.04 2.11 450.29 0.12"/><polygon class="cls-14" points="450.29 2.1 166.58 321.97 448.04 0.12 450.29 2.1"/><polygon class="cls-14" points="450.54 0.51 563.75 260.69 447.79 1.72 450.54 0.51"/><polygon class="cls-14" points="450.63 1.46 395.23 231.59 447.7 0.77 450.63 1.46"/><polygon class="cls-14" points="450.17 0 654.13 186.35 448.16 2.23 450.17 0"/><polygon class="cls-14" points="450.5 1.79 300.25 295.93 447.83 0.44 450.5 1.79"/><path class="cls-15" d="M231.86,324.81,203,353.51l28.7-28.08Z" transform="translate(-42.11 -68.31)"/><path d="M235.47,359.66l-26.78,30.62,26.94-30.38Z" transform="translate(-42.11 -68.31)"/><path class="cls-14" d="M491.27,69.42,42.11,420.58c0,10.67,201.09,19.31,449.16,19.31s449.17-8.64,449.17-19.31C42.17,420,119.72,389.26,491.27,69.42Z" transform="translate(-42.11 -68.31)"/></g></svg>