<svg xmlns="http://www.w3.org/2000/svg" viewBox="0 0 898.33 1040.7"><defs><style>.cls-1{fill:#231f20;}.cls-2{fill:#6d6e71;}.cls-3{fill:#4a4b4c;}.cls-4{fill:#3d3d3d;}.cls-5{fill:#9b7957;}.cls-6{fill:#c49a6c;}.cls-7{fill:none;stroke:#ed1c24;stroke-miterlimit:10;stroke-width:5px;}.cls-8{fill:#c6be8f;}.cls-9{fill:#877f57;}.cls-10{fill:#ad8c68;}.cls-11{fill:#7a6547;}.cls-12{fill:#754c29;}.cls-13{fill:#8e5a33;}.cls-14{fill:#442b19;}.cls-15{fill:#472d1a;}</style></defs><title>well2</title><g id="Well"><ellipse class="cls-1" cx="446.04" cy="672.48" rx="220.42" ry="33.13"/><path class="cls-2" d="M488.14,796.85c-157.51,0-285.19-25.1-285.19-56.06V1053c0,31,127.68,56.06,285.19,56.06s285.2-25.1,285.2-56.06V740.79C773.34,771.75,645.65,796.85,488.14,796.85Z" transform="translate(-42.11 -68.31)"/><path class="cls-3" d="M488.14,860.51c-162.25-8.6-222.63-11.42-285.19-31.69V1052c0,2.88,15.12,22.45,13.37,12.37-12.94-74.61,417.45-181.79,557-235.5C773.34,828.82,646.7,868.91,488.14,860.51Z" transform="translate(-42.11 -68.31)"/><path class="cls-2" d="M488.14,684.73c-173.24,0-313.68,25.09-313.68,56.06s140.44,56.06,313.68,56.06,313.68-25.1,313.68-56.06S661.38,684.73,488.14,684.73Zm0,89.18c-121.73,0-220.42-14.83-220.42-33.12s98.69-33.13,220.42-33.13,220.43,14.83,220.43,33.13S609.88,773.91,488.14,773.91Z" transform="translate(-42.11 -68.31)"/><path class="cls-3" d="M322.93,762.72c-34.36-5.84-55.21-13.52-55.21-21.93,0-18.3,98.69-33.13,220.42-33.13,74,0,139.49,5.48,179.47,13.89,5.84,1.23-.54-15.68,83.81-11.25-63.48-15.81-153.87-25.57-263.28-25.57-173.24,0-313.68,25.09-313.68,56.06,0,16.7,40.89,31.7,105.76,42-3-1.85-4.44-3.65-4.37-5.38Q276.18,769.12,322.93,762.72Z" transform="translate(-42.11 -68.31)"/></g><g id="Well_Rim" data-name="Well Rim"><path class="cls-2" d="M488.14,797.35c-173.24,0-313.68-25.1-313.68-56.06v64.16c0,31,140.44,56.06,313.68,56.06s313.68-25.1,313.68-56.06V741.29C801.82,772.25,661.38,797.35,488.14,797.35Z" transform="translate(-42.11 -68.31)"/><path class="cls-3" d="M400.66,795.14c.78-.17-1.59-.08-2.39-.13-129.44-6.9-223.81-28.34-223.81-53.72v64.16c0,24.83,90.3,45.88,215.4,53.25a13.29,13.29,0,0,0,1.68.1C348.49,852.66,339,808.23,400.66,795.14Z" transform="translate(-42.11 -68.31)"/></g><g id="Supports"><path class="cls-4" d="M208.69,737.69l31.43.26v-7.5l-22.7-18c-14,4.27-24.95,8.9-32.28,13.79Z" transform="translate(-42.11 -68.31)"/><path class="cls-3" d="M736.17,739.44l31.43.26v-7.5l-32.9-26.07c-26.4-6-59.5-11-97.28-14.66Z" transform="translate(-42.11 -68.31)"/><path class="cls-4" d="M734.14,705.94c-26.8-6.12-60-11.1-97.71-14.69l46.5,22.59q10.16-6.86,55.66-4.37Z" transform="translate(-42.11 -68.31)"/><rect class="cls-5" x="166.58" y="341.37" width="31.43" height="328.57"/><rect class="cls-6" x="694.06" y="342.82" width="31.43" height="328.57"/><path class="cls-5" d="M736.17,436.77v162A652,652,0,0,1,755,479.13c3.86-15.21,8.13-29.66,12.64-43.32C762.45,436,757.3,436.15,736.17,436.77Z" transform="translate(-42.11 -68.31)"/><path class="cls-5" d="M736.17,436.77v162a653.55,653.55,0,0,1,7.66-66.68c4.86-32.67,11.92-64.21,23.77-96.3C762.45,436,757.3,436.15,736.17,436.77Z" transform="translate(-42.11 -68.31)"/></g><g id="Rope"><path class="cls-7" d="M623.91,438.91" transform="translate(-42.11 -68.31)"/><path class="cls-7" d="M751.42,741.29" transform="translate(-42.11 -68.31)"/><polygon class="cls-8" points="716.23 672.98 699.38 672.98 574.38 370.6 591.23 370.6 716.23 672.98"/><path class="cls-9" d="M730.09,673l-96.75-234H616.49l110.36,267Q728.67,689,730.09,673Z" transform="translate(-42.11 -68.31)"/><polygon class="cls-10" points="693.49 658.69 699.95 634.62 697.77 629.35 691.31 653.42 693.49 658.69"/><polygon class="cls-11" points="586.49 399.94 592.95 375.87 590.77 370.6 584.31 394.67 586.49 399.94"/><polygon class="cls-11" points="601.77 436.9 608.24 412.84 606.06 407.57 599.59 431.63 601.77 436.9"/><polygon class="cls-11" points="617.06 473.87 623.52 449.8 621.34 444.53 614.88 468.6 617.06 473.87"/><polygon class="cls-11" points="632.35 510.83 638.81 486.76 636.63 481.5 630.17 505.56 632.35 510.83"/><polygon class="cls-11" points="647.63 547.79 654.09 523.73 651.91 518.46 645.45 542.53 647.63 547.79"/><polygon class="cls-11" points="662.92 584.76 669.38 560.69 667.2 555.42 660.74 579.49 662.92 584.76"/><polygon class="cls-11" points="678.21 621.72 684.67 597.65 682.49 592.39 676.03 616.45 678.21 621.72"/><line class="cls-11" x1="693.49" y1="658.69" x2="699.95" y2="634.62"/><polygon class="cls-10" points="714.87 672.98 715.24 671.58 713.06 666.31 711.27 672.98 714.87 672.98"/><path class="cls-8" d="M512.26,794.84l6.5-.26,10.34-.49L513.63,439.83l-16.83.74Z" transform="translate(-42.11 -68.31)"/><polygon class="cls-10" points="467.74 671.06 483.71 650.57 483.46 644.88 467.49 665.36 467.74 671.06"/><path class="cls-9" d="M509,719.09q8-1.35,16.25-2.61l.49-.34-12.23-280-16.87,0Z" transform="translate(-42.11 -68.31)"/><polygon class="cls-11" points="455.52 391.33 471.5 370.84 471.25 365.14 455.27 385.63 455.52 391.33"/><polygon class="cls-11" points="457.27 431.29 473.24 410.8 472.99 405.11 457.02 425.59 457.27 431.29"/><polygon class="cls-11" points="459.01 471.25 474.99 450.76 474.74 445.07 458.76 465.55 459.01 471.25"/><polygon class="cls-11" points="460.76 511.21 476.73 490.73 476.48 485.03 460.51 505.51 460.76 511.21"/><polygon class="cls-11" points="462.5 551.17 478.47 530.69 478.23 524.99 462.25 545.48 462.5 551.17"/><polygon class="cls-11" points="464.25 591.14 480.22 570.65 479.97 564.95 464 585.44 464.25 591.14"/><polygon class="cls-11" points="465.99 631.1 481.96 610.61 481.71 604.91 465.74 625.4 465.99 631.1"/><line class="cls-10" x1="467.74" y1="671.06" x2="483.71" y2="650.57"/><polygon class="cls-11" points="453.78 351.37 469.75 330.88 469.5 325.18 453.53 345.67 453.78 351.37"/><polygon class="cls-11" points="452.03 311.4 468.01 290.92 467.76 285.22 451.78 305.71 452.03 311.4"/><polygon class="cls-10" points="469.48 711.02 485.45 690.53 485.2 684.84 469.23 705.33 469.48 711.02"/><path class="cls-11" d="M522.69,716.88l2.52-.4.49-.34-.13-3Z" transform="translate(-42.11 -68.31)"/></g><g id="Top"><path class="cls-12" d="M491.27,69.42,42.11,420.58c0,10.67,201.09,19.31,449.16,19.31s449.17-8.64,449.17-19.31Z" transform="translate(-42.11 -68.31)"/><polygon class="cls-13" points="450.66 1.05 457.89 204.01 447.67 1.18 450.66 1.05"/><polygon class="cls-13" points="450.4 1.97 278.81 245.38 447.94 0.26 450.4 1.97"/><polygon class="cls-13" points="450.44 0.32 643.4 314.31 447.89 1.9 450.44 0.32"/><polygon class="cls-13" points="450.22 2.18 160.84 285.2 448.11 0.04 450.22 2.18"/><polygon class="cls-13" points="450.59 1.6 358.71 266.82 447.75 0.63 450.59 1.6"/><polygon class="cls-13" points="450.23 0.05 765.96 318.91 448.1 2.17 450.23 0.05"/><polygon class="cls-14" points="450.29 0.12 709.78 295.93 448.04 2.11 450.29 0.12"/><polygon class="cls-14" points="450.29 2.1 166.58 321.97 448.04 0.12 450.29 2.1"/><polygon class="cls-14" points="450.54 0.51 563.75 260.69 447.79 1.72 450.54 0.51"/><polygon class="cls-14" points="450.63 1.46 395.23 231.59 447.7 0.77 450.63 1.46"/><polygon class="cls-14" points="450.17 0 654.13 186.35 448.16 2.23 450.17 0"/><polygon class="cls-14" points="450.5 1.79 300.25 295.93 447.83 0.44 450.5 1.79"/><path class="cls-15" d="M231.86,324.81,203,353.51l28.7-28.08Z" transform="translate(-42.11 -68.31)"/><path d="M235.47,359.66l-26.78,30.62,26.94-30.38Z" transform="translate(-42.11 -68.31)"/><path class="cls-14" d="M491.27,69.42,42.11,420.58c0,10.67,201.09,19.31,449.16,19.31s449.17-8.64,449.17-19.31C42.17,420,119.72,389.26,491.27,69.42Z" transform="translate(-42.11 -68.31)"/><path class="cls-2" d="M657,788c-48.75,5.58-106.68,8.81-168.85,8.81-27.07,0-53.33-.61-78.39-1.77l7.77-22.9c22.17,1.12,45.92,1.73,70.62,1.73,59.71,0,113.87-3.56,153.56-9.36Z" transform="translate(-42.11 -68.31)"/></g></svg>